<svg width="513" height="328" viewBox="0 0 513 328" fill="none" xmlns="http://www.w3.org/2000/svg">
<path d="M25.84 92.5H21.28L7.56 71.74V92.5H3V64.66H7.56L21.28 85.38V64.66H25.84V92.5ZM52.0281 80.94C52.0281 81.7667 51.9748 82.5133 51.8681 83.18H35.0281C35.1615 84.94 35.8148 86.3533 36.9881 87.42C38.1615 88.4867 39.6015 89.02 41.3081 89.02C43.7615 89.02 45.4948 87.9933 46.5081 85.94H51.4281C50.7615 87.9667 49.5481 89.6333 47.7881 90.94C46.0548 92.22 43.8948 92.86 41.3081 92.86C39.2015 92.86 37.3081 92.3933 35.6281 91.46C33.9748 90.5 32.6681 89.1667 31.7081 87.46C30.7748 85.7267 30.3081 83.7267 30.3081 81.46C30.3081 79.1933 30.7615 77.2067 31.6681 75.5C32.6015 73.7667 33.8948 72.4333 35.5481 71.5C37.2281 70.5667 39.1481 70.1 41.3081 70.1C43.3881 70.1 45.2415 70.5533 46.8681 71.46C48.4948 72.3667 49.7615 73.6467 50.6681 75.3C51.5748 76.9267 52.0281 78.8067 52.0281 80.94ZM47.2681 79.5C47.2415 77.82 46.6415 76.4733 45.4681 75.46C44.2948 74.4467 42.8415 73.94 41.1081 73.94C39.5348 73.94 38.1881 74.4467 37.0681 75.46C35.9481 76.4467 35.2815 77.7933 35.0681 79.5H47.2681ZM65.0356 88.42L71.2756 70.46H76.1156L67.7156 92.5H62.2756L53.9156 70.46H58.7956L65.0356 88.42ZM99.7625 80.94C99.7625 81.7667 99.7092 82.5133 99.6025 83.18H82.7625C82.8958 84.94 83.5492 86.3533 84.7225 87.42C85.8958 88.4867 87.3358 89.02 89.0425 89.02C91.4958 89.02 93.2292 87.9933 94.2425 85.94H99.1625C98.4958 87.9667 97.2825 89.6333 95.5225 90.94C93.7892 92.22 91.6292 92.86 89.0425 92.86C86.9358 92.86 85.0425 92.3933 83.3625 91.46C81.7092 90.5 80.4025 89.1667 79.4425 87.46C78.5092 85.7267 78.0425 83.7267 78.0425 81.46C78.0425 79.1933 78.4958 77.2067 79.4025 75.5C80.3358 73.7667 81.6292 72.4333 83.2825 71.5C84.9625 70.5667 86.8825 70.1 89.0425 70.1C91.1225 70.1 92.9758 70.5533 94.6025 71.46C96.2292 72.3667 97.4958 73.6467 98.4025 75.3C99.3092 76.9267 99.7625 78.8067 99.7625 80.94ZM95.0025 79.5C94.9758 77.82 94.3758 76.4733 93.2025 75.46C92.0292 74.4467 90.5758 73.94 88.8425 73.94C87.2692 73.94 85.9225 74.4467 84.8025 75.46C83.6825 76.4467 83.0158 77.7933 82.8025 79.5H95.0025ZM108.81 73.66C109.477 72.54 110.357 71.6733 111.45 71.06C112.57 70.42 113.89 70.1 115.41 70.1V74.82H114.25C112.463 74.82 111.103 75.2733 110.17 76.18C109.263 77.0867 108.81 78.66 108.81 80.9V92.5H104.25V70.46H108.81V73.66ZM139.152 92.78C137.286 92.78 135.606 92.46 134.112 91.82C132.619 91.1533 131.446 90.22 130.592 89.02C129.739 87.82 129.312 86.42 129.312 84.82H134.192C134.299 86.02 134.766 87.0067 135.592 87.78C136.446 88.5533 137.632 88.94 139.152 88.94C140.726 88.94 141.952 88.5667 142.832 87.82C143.712 87.0467 144.152 86.06 144.152 84.86C144.152 83.9267 143.872 83.1667 143.312 82.58C142.779 81.9933 142.099 81.54 141.272 81.22C140.472 80.9 139.352 80.5533 137.912 80.18C136.099 79.7 134.619 79.22 133.472 78.74C132.352 78.2333 131.392 77.46 130.592 76.42C129.792 75.38 129.392 73.9933 129.392 72.26C129.392 70.66 129.792 69.26 130.592 68.06C131.392 66.86 132.512 65.94 133.952 65.3C135.392 64.66 137.059 64.34 138.952 64.34C141.646 64.34 143.846 65.02 145.552 66.38C147.286 67.7133 148.246 69.5533 148.432 71.9H143.392C143.312 70.8867 142.832 70.02 141.952 69.3C141.072 68.58 139.912 68.22 138.472 68.22C137.166 68.22 136.099 68.5533 135.272 69.22C134.446 69.8867 134.032 70.8467 134.032 72.1C134.032 72.9533 134.286 73.66 134.792 74.22C135.326 74.7533 135.992 75.18 136.792 75.5C137.592 75.82 138.686 76.1667 140.072 76.54C141.912 77.0467 143.406 77.5533 144.552 78.06C145.726 78.5667 146.712 79.3533 147.512 80.42C148.339 81.46 148.752 82.86 148.752 84.62C148.752 86.0333 148.366 87.3667 147.592 88.62C146.846 89.8733 145.739 90.8867 144.272 91.66C142.832 92.4067 141.126 92.78 139.152 92.78ZM159.453 74.18V86.38C159.453 87.2067 159.639 87.8067 160.013 88.18C160.413 88.5267 161.079 88.7 162.013 88.7H164.813V92.5H161.213C159.159 92.5 157.586 92.02 156.493 91.06C155.399 90.1 154.853 88.54 154.853 86.38V74.18H152.253V70.46H154.853V64.98H159.453V70.46H164.813V74.18H159.453ZM178.576 92.86C176.496 92.86 174.616 92.3933 172.936 91.46C171.256 90.5 169.936 89.1667 168.976 87.46C168.016 85.7267 167.536 83.7267 167.536 81.46C167.536 79.22 168.029 77.2333 169.016 75.5C170.002 73.7667 171.349 72.4333 173.056 71.5C174.762 70.5667 176.669 70.1 178.776 70.1C180.882 70.1 182.789 70.5667 184.496 71.5C186.202 72.4333 187.549 73.7667 188.536 75.5C189.522 77.2333 190.016 79.22 190.016 81.46C190.016 83.7 189.509 85.6867 188.496 87.42C187.482 89.1533 186.096 90.5 184.336 91.46C182.602 92.3933 180.682 92.86 178.576 92.86ZM178.576 88.9C179.749 88.9 180.842 88.62 181.856 88.06C182.896 87.5 183.736 86.66 184.376 85.54C185.016 84.42 185.336 83.06 185.336 81.46C185.336 79.86 185.029 78.5133 184.416 77.42C183.802 76.3 182.989 75.46 181.976 74.9C180.962 74.34 179.869 74.06 178.696 74.06C177.522 74.06 176.429 74.34 175.416 74.9C174.429 75.46 173.642 76.3 173.056 77.42C172.469 78.5133 172.176 79.86 172.176 81.46C172.176 83.8333 172.776 85.6733 173.976 86.98C175.202 88.26 176.736 88.9 178.576 88.9ZM199.083 73.7C199.857 72.6867 200.91 71.8333 202.243 71.14C203.577 70.4467 205.083 70.1 206.763 70.1C208.683 70.1 210.43 70.58 212.003 71.54C213.603 72.4733 214.857 73.7933 215.763 75.5C216.67 77.2067 217.123 79.1667 217.123 81.38C217.123 83.5933 216.67 85.58 215.763 87.34C214.857 89.0733 213.603 90.4333 212.003 91.42C210.43 92.38 208.683 92.86 206.763 92.86C205.083 92.86 203.59 92.5267 202.283 91.86C200.977 91.1667 199.91 90.3133 199.083 89.3V102.98H194.523V70.46H199.083V73.7ZM212.483 81.38C212.483 79.86 212.163 78.5533 211.523 77.46C210.91 76.34 210.083 75.5 209.043 74.94C208.03 74.3533 206.937 74.06 205.763 74.06C204.617 74.06 203.523 74.3533 202.483 74.94C201.47 75.5267 200.643 76.38 200.003 77.5C199.39 78.62 199.083 79.94 199.083 81.46C199.083 82.98 199.39 84.3133 200.003 85.46C200.643 86.58 201.47 87.4333 202.483 88.02C203.523 88.6067 204.617 88.9 205.763 88.9C206.937 88.9 208.03 88.6067 209.043 88.02C210.083 87.4067 210.91 86.5267 211.523 85.38C212.163 84.2333 212.483 82.9 212.483 81.38ZM7.56 148.82H16.96V152.5H3V124.7H7.56V148.82ZM23.0934 127.54C22.2668 127.54 21.5734 127.26 21.0134 126.7C20.4534 126.14 20.1734 125.447 20.1734 124.62C20.1734 123.793 20.4534 123.1 21.0134 122.54C21.5734 121.98 22.2668 121.7 23.0934 121.7C23.8934 121.7 24.5734 121.98 25.1334 122.54C25.6934 123.1 25.9734 123.793 25.9734 124.62C25.9734 125.447 25.6934 126.14 25.1334 126.7C24.5734 127.26 23.8934 127.54 23.0934 127.54ZM25.3334 130.46V152.5H20.7734V130.46H25.3334ZM40.5603 134.18H36.4803V152.5H31.8803V134.18H29.2803V130.46H31.8803V128.9C31.8803 126.367 32.547 124.527 33.8803 123.38C35.2403 122.207 37.3603 121.62 40.2403 121.62V125.42C38.8536 125.42 37.8803 125.687 37.3203 126.22C36.7603 126.727 36.4803 127.62 36.4803 128.9V130.46H40.5603V134.18ZM64.8016 140.94C64.8016 141.767 64.7482 142.513 64.6416 143.18H47.8016C47.9349 144.94 48.5882 146.353 49.7616 147.42C50.9349 148.487 52.3749 149.02 54.0816 149.02C56.5349 149.02 58.2682 147.993 59.2816 145.94H64.2016C63.5349 147.967 62.3216 149.633 60.5616 150.94C58.8282 152.22 56.6682 152.86 54.0816 152.86C51.9749 152.86 50.0816 152.393 48.4016 151.46C46.7482 150.5 45.4416 149.167 44.4816 147.46C43.5482 145.727 43.0816 143.727 43.0816 141.46C43.0816 139.193 43.5349 137.207 44.4416 135.5C45.3749 133.767 46.6682 132.433 48.3216 131.5C50.0016 130.567 51.9216 130.1 54.0816 130.1C56.1616 130.1 58.0149 130.553 59.6416 131.46C61.2682 132.367 62.5349 133.647 63.4416 135.3C64.3482 136.927 64.8016 138.807 64.8016 140.94ZM60.0416 139.5C60.0149 137.82 59.4149 136.473 58.2416 135.46C57.0682 134.447 55.6149 133.94 53.8816 133.94C52.3082 133.94 50.9616 134.447 49.8416 135.46C48.7216 136.447 48.0549 137.793 47.8416 139.5H60.0416ZM104.28 152.5H97.4397L85.9997 135.18V152.5H79.1597V124.42H85.9997L97.4397 141.82V124.42H104.28V152.5ZM130.278 140.98C130.278 141.62 130.238 142.287 130.158 142.98H114.678C114.784 144.367 115.224 145.433 115.998 146.18C116.798 146.9 117.771 147.26 118.918 147.26C120.624 147.26 121.811 146.54 122.478 145.1H129.758C129.384 146.567 128.704 147.887 127.718 149.06C126.758 150.233 125.544 151.153 124.078 151.82C122.611 152.487 120.971 152.82 119.158 152.82C116.971 152.82 115.024 152.353 113.318 151.42C111.611 150.487 110.278 149.153 109.318 147.42C108.358 145.687 107.878 143.66 107.878 141.34C107.878 139.02 108.344 136.993 109.278 135.26C110.238 133.527 111.571 132.193 113.278 131.26C114.984 130.327 116.944 129.86 119.158 129.86C121.318 129.86 123.238 130.313 124.918 131.22C126.598 132.127 127.904 133.42 128.838 135.1C129.798 136.78 130.278 138.74 130.278 140.98ZM123.278 139.18C123.278 138.007 122.878 137.073 122.078 136.38C121.278 135.687 120.278 135.34 119.078 135.34C117.931 135.34 116.958 135.673 116.158 136.34C115.384 137.007 114.904 137.953 114.718 139.18H123.278ZM143.926 146.1L148.766 130.18H156.046L148.126 152.5H139.686L131.766 130.18H139.086L143.926 146.1ZM179.965 140.98C179.965 141.62 179.925 142.287 179.845 142.98H164.365C164.472 144.367 164.912 145.433 165.685 146.18C166.485 146.9 167.459 147.26 168.605 147.26C170.312 147.26 171.499 146.54 172.165 145.1H179.445C179.072 146.567 178.392 147.887 177.405 149.06C176.445 150.233 175.232 151.153 173.765 151.82C172.299 152.487 170.659 152.82 168.845 152.82C166.659 152.82 164.712 152.353 163.005 151.42C161.299 150.487 159.965 149.153 159.005 147.42C158.045 145.687 157.565 143.66 157.565 141.34C157.565 139.02 158.032 136.993 158.965 135.26C159.925 133.527 161.259 132.193 162.965 131.26C164.672 130.327 166.632 129.86 168.845 129.86C171.005 129.86 172.925 130.313 174.605 131.22C176.285 132.127 177.592 133.42 178.525 135.1C179.485 136.78 179.965 138.74 179.965 140.98ZM172.965 139.18C172.965 138.007 172.565 137.073 171.765 136.38C170.965 135.687 169.965 135.34 168.765 135.34C167.619 135.34 166.645 135.673 165.845 136.34C165.072 137.007 164.592 137.953 164.405 139.18H172.965ZM190.414 133.9C191.214 132.673 192.214 131.713 193.414 131.02C194.614 130.3 195.947 129.94 197.414 129.94V137.18H195.534C193.827 137.18 192.547 137.553 191.694 138.3C190.84 139.02 190.414 140.3 190.414 142.14V152.5H183.574V130.18H190.414V133.9ZM219.32 152.78C217.266 152.78 215.426 152.447 213.8 151.78C212.173 151.113 210.866 150.127 209.88 148.82C208.92 147.513 208.413 145.94 208.36 144.1H215.64C215.746 145.14 216.106 145.94 216.72 146.5C217.333 147.033 218.133 147.3 219.12 147.3C220.133 147.3 220.933 147.073 221.52 146.62C222.106 146.14 222.4 145.487 222.4 144.66C222.4 143.967 222.16 143.393 221.68 142.94C221.226 142.487 220.653 142.113 219.96 141.82C219.293 141.527 218.333 141.193 217.08 140.82C215.266 140.26 213.786 139.7 212.64 139.14C211.493 138.58 210.506 137.753 209.68 136.66C208.853 135.567 208.44 134.14 208.44 132.38C208.44 129.767 209.386 127.727 211.28 126.26C213.173 124.767 215.64 124.02 218.68 124.02C221.773 124.02 224.266 124.767 226.16 126.26C228.053 127.727 229.066 129.78 229.2 132.42H221.8C221.746 131.513 221.413 130.807 220.8 130.3C220.186 129.767 219.4 129.5 218.44 129.5C217.613 129.5 216.946 129.727 216.44 130.18C215.933 130.607 215.68 131.233 215.68 132.06C215.68 132.967 216.106 133.673 216.96 134.18C217.813 134.687 219.146 135.233 220.96 135.82C222.773 136.433 224.24 137.02 225.36 137.58C226.506 138.14 227.493 138.953 228.32 140.02C229.146 141.087 229.56 142.46 229.56 144.14C229.56 145.74 229.146 147.193 228.32 148.5C227.52 149.807 226.346 150.847 224.8 151.62C223.253 152.393 221.426 152.78 219.32 152.78ZM246.209 146.7V152.5H242.729C240.249 152.5 238.316 151.9 236.929 150.7C235.542 149.473 234.849 147.487 234.849 144.74V135.86H232.129V130.18H234.849V124.74H241.689V130.18H246.169V135.86H241.689V144.82C241.689 145.487 241.849 145.967 242.169 146.26C242.489 146.553 243.022 146.7 243.769 146.7H246.209ZM260.179 152.82C257.992 152.82 256.019 152.353 254.259 151.42C252.526 150.487 251.152 149.153 250.139 147.42C249.152 145.687 248.659 143.66 248.659 141.34C248.659 139.047 249.166 137.033 250.179 135.3C251.192 133.54 252.579 132.193 254.339 131.26C256.099 130.327 258.072 129.86 260.259 129.86C262.446 129.86 264.419 130.327 266.179 131.26C267.939 132.193 269.326 133.54 270.339 135.3C271.352 137.033 271.859 139.047 271.859 141.34C271.859 143.633 271.339 145.66 270.299 147.42C269.286 149.153 267.886 150.487 266.099 151.42C264.339 152.353 262.366 152.82 260.179 152.82ZM260.179 146.9C261.486 146.9 262.592 146.42 263.499 145.46C264.432 144.5 264.899 143.127 264.899 141.34C264.899 139.553 264.446 138.18 263.539 137.22C262.659 136.26 261.566 135.78 260.259 135.78C258.926 135.78 257.819 136.26 256.939 137.22C256.059 138.153 255.619 139.527 255.619 141.34C255.619 143.127 256.046 144.5 256.899 145.46C257.779 146.42 258.872 146.9 260.179 146.9ZM282.328 133.34C282.994 132.3 283.914 131.46 285.088 130.82C286.261 130.18 287.634 129.86 289.208 129.86C291.048 129.86 292.714 130.327 294.208 131.26C295.701 132.193 296.874 133.527 297.728 135.26C298.608 136.993 299.048 139.007 299.048 141.3C299.048 143.593 298.608 145.62 297.728 147.38C296.874 149.113 295.701 150.46 294.208 151.42C292.714 152.353 291.048 152.82 289.208 152.82C287.661 152.82 286.288 152.5 285.088 151.86C283.914 151.22 282.994 150.393 282.328 149.38V163.14H275.488V130.18H282.328V133.34ZM292.088 141.3C292.088 139.593 291.608 138.26 290.648 137.3C289.714 136.313 288.554 135.82 287.168 135.82C285.808 135.82 284.648 136.313 283.688 137.3C282.754 138.287 282.288 139.633 282.288 141.34C282.288 143.047 282.754 144.393 283.688 145.38C284.648 146.367 285.808 146.86 287.168 146.86C288.528 146.86 289.688 146.367 290.648 145.38C291.608 144.367 292.088 143.007 292.088 141.3ZM331.507 124.7V128.42H324.107V152.5H319.547V128.42H312.107V124.7H331.507ZM356.325 140.94C356.325 141.767 356.272 142.513 356.165 143.18H339.325C339.458 144.94 340.112 146.353 341.285 147.42C342.458 148.487 343.898 149.02 345.605 149.02C348.058 149.02 349.792 147.993 350.805 145.94H355.725C355.058 147.967 353.845 149.633 352.085 150.94C350.352 152.22 348.192 152.86 345.605 152.86C343.498 152.86 341.605 152.393 339.925 151.46C338.272 150.5 336.965 149.167 336.005 147.46C335.072 145.727 334.605 143.727 334.605 141.46C334.605 139.193 335.058 137.207 335.965 135.5C336.898 133.767 338.192 132.433 339.845 131.5C341.525 130.567 343.445 130.1 345.605 130.1C347.685 130.1 349.538 130.553 351.165 131.46C352.792 132.367 354.058 133.647 354.965 135.3C355.872 136.927 356.325 138.807 356.325 140.94ZM351.565 139.5C351.538 137.82 350.938 136.473 349.765 135.46C348.592 134.447 347.138 133.94 345.405 133.94C343.832 133.94 342.485 134.447 341.365 135.46C340.245 136.447 339.578 137.793 339.365 139.5H351.565ZM359.293 141.38C359.293 139.167 359.746 137.207 360.653 135.5C361.586 133.793 362.839 132.473 364.413 131.54C366.013 130.58 367.773 130.1 369.693 130.1C371.426 130.1 372.933 130.447 374.213 131.14C375.519 131.807 376.559 132.647 377.333 133.66V130.46H381.933V152.5H377.333V149.22C376.559 150.26 375.506 151.127 374.173 151.82C372.839 152.513 371.319 152.86 369.613 152.86C367.719 152.86 365.986 152.38 364.413 151.42C362.839 150.433 361.586 149.073 360.653 147.34C359.746 145.58 359.293 143.593 359.293 141.38ZM377.333 141.46C377.333 139.94 377.013 138.62 376.373 137.5C375.759 136.38 374.946 135.527 373.933 134.94C372.919 134.353 371.826 134.06 370.653 134.06C369.479 134.06 368.386 134.353 367.373 134.94C366.359 135.5 365.533 136.34 364.893 137.46C364.279 138.553 363.973 139.86 363.973 141.38C363.973 142.9 364.279 144.233 364.893 145.38C365.533 146.527 366.359 147.407 367.373 148.02C368.413 148.607 369.506 148.9 370.653 148.9C371.826 148.9 372.919 148.607 373.933 148.02C374.946 147.433 375.759 146.58 376.373 145.46C377.013 144.313 377.333 142.98 377.333 141.46ZM386.402 141.46C386.402 139.193 386.855 137.207 387.762 135.5C388.695 133.767 389.975 132.433 391.602 131.5C393.229 130.567 395.095 130.1 397.202 130.1C399.869 130.1 402.069 130.74 403.802 132.02C405.562 133.273 406.749 135.073 407.362 137.42H402.442C402.042 136.327 401.402 135.473 400.522 134.86C399.642 134.247 398.535 133.94 397.202 133.94C395.335 133.94 393.842 134.607 392.722 135.94C391.629 137.247 391.082 139.087 391.082 141.46C391.082 143.833 391.629 145.687 392.722 147.02C393.842 148.353 395.335 149.02 397.202 149.02C399.842 149.02 401.589 147.86 402.442 145.54H407.362C406.722 147.78 405.522 149.567 403.762 150.9C402.002 152.207 399.815 152.86 397.202 152.86C395.095 152.86 393.229 152.393 391.602 151.46C389.975 150.5 388.695 149.167 387.762 147.46C386.855 145.727 386.402 143.727 386.402 141.46ZM423.306 130.1C424.986 130.1 426.48 130.46 427.786 131.18C429.12 131.9 430.16 132.967 430.906 134.38C431.68 135.793 432.066 137.5 432.066 139.5V152.5H427.546V140.18C427.546 138.207 427.053 136.7 426.066 135.66C425.08 134.593 423.733 134.06 422.026 134.06C420.32 134.06 418.96 134.593 417.946 135.66C416.96 136.7 416.466 138.207 416.466 140.18V152.5H411.906V122.9H416.466V133.02C417.24 132.087 418.213 131.367 419.386 130.86C420.586 130.353 421.893 130.1 423.306 130.1ZM440.203 127.54C439.376 127.54 438.683 127.26 438.123 126.7C437.563 126.14 437.283 125.447 437.283 124.62C437.283 123.793 437.563 123.1 438.123 122.54C438.683 121.98 439.376 121.7 440.203 121.7C441.003 121.7 441.683 121.98 442.243 122.54C442.803 123.1 443.083 123.793 443.083 124.62C443.083 125.447 442.803 126.14 442.243 126.7C441.683 127.26 441.003 127.54 440.203 127.54ZM442.443 130.46V152.5H437.883V130.46H442.443ZM459.55 130.1C461.283 130.1 462.83 130.46 464.19 131.18C465.576 131.9 466.656 132.967 467.43 134.38C468.203 135.793 468.59 137.5 468.59 139.5V152.5H464.07V140.18C464.07 138.207 463.576 136.7 462.59 135.66C461.603 134.593 460.256 134.06 458.55 134.06C456.843 134.06 455.483 134.593 454.47 135.66C453.483 136.7 452.99 138.207 452.99 140.18V152.5H448.43V130.46H452.99V132.98C453.736 132.073 454.683 131.367 455.83 130.86C457.003 130.353 458.243 130.1 459.55 130.1ZM483.286 130.1C484.993 130.1 486.5 130.447 487.806 131.14C489.14 131.807 490.18 132.647 490.926 133.66V130.46H495.526V152.86C495.526 154.887 495.1 156.687 494.246 158.26C493.393 159.86 492.153 161.113 490.526 162.02C488.926 162.927 487.006 163.38 484.766 163.38C481.78 163.38 479.3 162.673 477.326 161.26C475.353 159.873 474.233 157.98 473.966 155.58H478.486C478.833 156.727 479.566 157.647 480.686 158.34C481.833 159.06 483.193 159.42 484.766 159.42C486.606 159.42 488.086 158.86 489.206 157.74C490.353 156.62 490.926 154.993 490.926 152.86V149.18C490.153 150.22 489.1 151.1 487.766 151.82C486.46 152.513 484.966 152.86 483.286 152.86C481.366 152.86 479.606 152.38 478.006 151.42C476.433 150.433 475.18 149.073 474.246 147.34C473.34 145.58 472.886 143.593 472.886 141.38C472.886 139.167 473.34 137.207 474.246 135.5C475.18 133.793 476.433 132.473 478.006 131.54C479.606 130.58 481.366 130.1 483.286 130.1ZM490.926 141.46C490.926 139.94 490.606 138.62 489.966 137.5C489.353 136.38 488.54 135.527 487.526 134.94C486.513 134.353 485.42 134.06 484.246 134.06C483.073 134.06 481.98 134.353 480.966 134.94C479.953 135.5 479.126 136.34 478.486 137.46C477.873 138.553 477.566 139.86 477.566 141.38C477.566 142.9 477.873 144.233 478.486 145.38C479.126 146.527 479.953 147.407 480.966 148.02C482.006 148.607 483.1 148.9 484.246 148.9C485.42 148.9 486.513 148.607 487.526 148.02C488.54 147.433 489.353 146.58 489.966 145.46C490.606 144.313 490.926 142.98 490.926 141.46Z" fill="#161439"/>
<g clip-path="url(#clip0_8544_5)">
<path d="M233.945 60.8138C300.421 52.3724 368.371 51.2381 437.795 57.411C441.115 57.7569 443.412 60.2829 442.911 63.0422C440.721 75.9457 439.311 88.2109 438.683 99.838C438.637 102.219 436.068 104.335 432.964 104.56C368.367 110.224 305.018 111.017 242.915 106.941C239.902 106.74 237.117 104.496 236.685 101.938C234.419 89.8171 231.918 77.8468 229.182 66.0267C228.613 63.549 230.739 61.2241 233.934 60.8138" fill="#FFC224"/>
</g>
<path d="M442.926 42.9604C444.33 36.3453 447.079 20.8798 446.838 11.9385" stroke="#161439" stroke-width="3.07158" stroke-linejoin="round" stroke-dasharray="32 34"/>
<path d="M459.43 53.0191C465.529 50.098 479.462 42.8448 486.401 37.2009" stroke="#161439" stroke-width="3.07158" stroke-linejoin="round" stroke-dasharray="32 34"/>
<path d="M452.084 44.7553C455.136 41.486 461.839 33.7239 464.236 28.8291" stroke="#161439" stroke-width="3.07158" stroke-linejoin="round" stroke-dasharray="21 23"/>
<path d="M258.41 87.22H267.37V92.5H251.57V64.42H258.41V87.22ZM291.672 80.98C291.672 81.62 291.632 82.2867 291.552 82.98H276.072C276.179 84.3667 276.619 85.4333 277.392 86.18C278.192 86.9 279.166 87.26 280.312 87.26C282.019 87.26 283.206 86.54 283.872 85.1H291.152C290.779 86.5667 290.099 87.8867 289.112 89.06C288.152 90.2333 286.939 91.1533 285.472 91.82C284.006 92.4867 282.366 92.82 280.552 92.82C278.366 92.82 276.419 92.3533 274.712 91.42C273.006 90.4867 271.672 89.1533 270.712 87.42C269.752 85.6867 269.272 83.66 269.272 81.34C269.272 79.02 269.739 76.9933 270.672 75.26C271.632 73.5267 272.966 72.1933 274.672 71.26C276.379 70.3267 278.339 69.86 280.552 69.86C282.712 69.86 284.632 70.3133 286.312 71.22C287.992 72.1267 289.299 73.42 290.232 75.1C291.192 76.78 291.672 78.74 291.672 80.98ZM284.672 79.18C284.672 78.0067 284.272 77.0733 283.472 76.38C282.672 75.6867 281.672 75.34 280.472 75.34C279.326 75.34 278.352 75.6733 277.552 76.34C276.779 77.0067 276.299 77.9533 276.112 79.18H284.672ZM293.921 81.3C293.921 79.0067 294.347 76.9933 295.201 75.26C296.081 73.5267 297.267 72.1933 298.761 71.26C300.254 70.3267 301.921 69.86 303.761 69.86C305.334 69.86 306.707 70.18 307.881 70.82C309.081 71.46 310.001 72.3 310.641 73.34V70.18H317.481V92.5H310.641V89.34C309.974 90.38 309.041 91.22 307.841 91.86C306.667 92.5 305.294 92.82 303.721 92.82C301.907 92.82 300.254 92.3533 298.761 91.42C297.267 90.46 296.081 89.1133 295.201 87.38C294.347 85.62 293.921 83.5933 293.921 81.3ZM310.641 81.34C310.641 79.6333 310.161 78.2867 309.201 77.3C308.267 76.3133 307.121 75.82 305.761 75.82C304.401 75.82 303.241 76.3133 302.281 77.3C301.347 78.26 300.881 79.5933 300.881 81.3C300.881 83.0067 301.347 84.3667 302.281 85.38C303.241 86.3667 304.401 86.86 305.761 86.86C307.121 86.86 308.267 86.3667 309.201 85.38C310.161 84.3933 310.641 83.0467 310.641 81.34ZM329.269 73.9C330.069 72.6733 331.069 71.7133 332.269 71.02C333.469 70.3 334.803 69.94 336.269 69.94V77.18H334.389C332.683 77.18 331.403 77.5533 330.549 78.3C329.696 79.02 329.269 80.3 329.269 82.14V92.5H322.429V70.18H329.269V73.9ZM353.139 69.94C355.752 69.94 357.832 70.7933 359.379 72.5C360.952 74.18 361.739 76.5 361.739 79.46V92.5H354.939V80.38C354.939 78.8867 354.552 77.7267 353.779 76.9C353.005 76.0733 351.965 75.66 350.659 75.66C349.352 75.66 348.312 76.0733 347.539 76.9C346.765 77.7267 346.379 78.8867 346.379 80.38V92.5H339.539V70.18H346.379V73.14C347.072 72.1533 348.005 71.38 349.179 70.82C350.352 70.2333 351.672 69.94 353.139 69.94ZM369.932 67.86C368.732 67.86 367.745 67.5133 366.972 66.82C366.225 66.1 365.852 65.22 365.852 64.18C365.852 63.1133 366.225 62.2333 366.972 61.54C367.745 60.82 368.732 60.46 369.932 60.46C371.105 60.46 372.065 60.82 372.812 61.54C373.585 62.2333 373.972 63.1133 373.972 64.18C373.972 65.22 373.585 66.1 372.812 66.82C372.065 67.5133 371.105 67.86 369.932 67.86ZM373.332 70.18V92.5H366.492V70.18H373.332ZM391.889 69.94C394.502 69.94 396.582 70.7933 398.129 72.5C399.702 74.18 400.489 76.5 400.489 79.46V92.5H393.689V80.38C393.689 78.8867 393.302 77.7267 392.529 76.9C391.755 76.0733 390.715 75.66 389.409 75.66C388.102 75.66 387.062 76.0733 386.289 76.9C385.515 77.7267 385.129 78.8867 385.129 80.38V92.5H378.289V70.18H385.129V73.14C385.822 72.1533 386.755 71.38 387.929 70.82C389.102 70.2333 390.422 69.94 391.889 69.94ZM413.722 69.86C415.295 69.86 416.668 70.18 417.842 70.82C419.042 71.46 419.962 72.3 420.602 73.34V70.18H427.442V92.46C427.442 94.5133 427.028 96.3667 426.202 98.02C425.402 99.7 424.162 101.033 422.482 102.02C420.828 103.007 418.762 103.5 416.282 103.5C412.975 103.5 410.295 102.713 408.242 101.14C406.188 99.5933 405.015 97.4867 404.722 94.82H411.482C411.695 95.6733 412.202 96.34 413.002 96.82C413.802 97.3267 414.788 97.58 415.962 97.58C417.375 97.58 418.495 97.1667 419.322 96.34C420.175 95.54 420.602 94.2467 420.602 92.46V89.3C419.935 90.34 419.015 91.1933 417.842 91.86C416.668 92.5 415.295 92.82 413.722 92.82C411.882 92.82 410.215 92.3533 408.722 91.42C407.228 90.46 406.042 89.1133 405.162 87.38C404.308 85.62 403.882 83.5933 403.882 81.3C403.882 79.0067 404.308 76.9933 405.162 75.26C406.042 73.5267 407.228 72.1933 408.722 71.26C410.215 70.3267 411.882 69.86 413.722 69.86ZM420.602 81.34C420.602 79.6333 420.122 78.2867 419.162 77.3C418.228 76.3133 417.082 75.82 415.722 75.82C414.362 75.82 413.202 76.3133 412.242 77.3C411.308 78.26 410.842 79.5933 410.842 81.3C410.842 83.0067 411.308 84.3667 412.242 85.38C413.202 86.3667 414.362 86.86 415.722 86.86C417.082 86.86 418.228 86.3667 419.162 85.38C420.122 84.3933 420.602 83.0467 420.602 81.34Z" fill="white"/>
<path d="M1.58523 199.7V186.609H9.4858V188.015H3.17045V192.439H9.0767V193.845H3.17045V198.294H9.58807V199.7H1.58523ZM20.1669 189.882L16.5362 199.7H15.0021L11.3714 189.882H13.0078L15.718 197.706H15.8203L18.5305 189.882H20.1669ZM25.9229 199.904C24.9769 199.904 24.1609 199.696 23.4748 199.278C22.793 198.856 22.2667 198.268 21.896 197.514C21.5295 196.755 21.3462 195.873 21.3462 194.868C21.3462 193.862 21.5295 192.976 21.896 192.208C22.2667 191.437 22.7823 190.836 23.4428 190.406C24.1076 189.971 24.8832 189.754 25.7695 189.754C26.2809 189.754 26.7859 189.839 27.2844 190.01C27.783 190.18 28.2369 190.457 28.646 190.841C29.055 191.22 29.381 191.723 29.6239 192.349C29.8668 192.976 29.9883 193.747 29.9883 194.663V195.302H22.4201V193.998H28.4542C28.4542 193.444 28.3434 192.95 28.1218 192.515C27.9045 192.081 27.5934 191.738 27.1886 191.486C26.788 191.235 26.315 191.109 25.7695 191.109C25.1687 191.109 24.6488 191.258 24.2099 191.556C23.7752 191.851 23.4407 192.234 23.2063 192.707C22.9719 193.18 22.8548 193.687 22.8548 194.228V195.098C22.8548 195.839 22.9826 196.468 23.2383 196.983C23.4982 197.495 23.8583 197.885 24.3185 198.153C24.7788 198.417 25.3136 198.549 25.9229 198.549C26.3192 198.549 26.6772 198.494 26.9968 198.383C27.3207 198.268 27.5998 198.098 27.8342 197.872C28.0685 197.642 28.2496 197.356 28.3775 197.015L29.8349 197.424C29.6815 197.919 29.4237 198.353 29.0614 198.728C28.6992 199.099 28.2518 199.389 27.7191 199.598C27.1864 199.802 26.5877 199.904 25.9229 199.904ZM32.283 199.7V189.882H33.7404V191.365H33.8427C34.0217 190.879 34.3455 190.485 34.8143 190.182C35.283 189.88 35.8114 189.728 36.3995 189.728C36.5103 189.728 36.6488 189.73 36.815 189.735C36.9812 189.739 37.1069 189.745 37.1921 189.754V191.288C37.141 191.275 37.0238 191.256 36.8406 191.23C36.6616 191.201 36.4719 191.186 36.2717 191.186C35.7944 191.186 35.3683 191.286 34.9933 191.486C34.6225 191.682 34.3285 191.955 34.1112 192.304C33.8981 192.65 33.7915 193.044 33.7915 193.487V199.7H32.283ZM40.2507 203.382C39.995 203.382 39.767 203.36 39.5668 203.318C39.3665 203.279 39.228 203.241 39.1513 203.203L39.5348 201.873C39.9013 201.967 40.2251 202.001 40.5064 201.976C40.7876 201.95 41.0369 201.824 41.2543 201.598C41.4759 201.377 41.6783 201.017 41.8615 200.518L42.1428 199.751L38.5121 189.882H40.1484L42.8587 197.706H42.9609L45.6712 189.882H47.3075L43.1399 201.132C42.9524 201.639 42.7202 202.059 42.4432 202.391C42.1662 202.728 41.8445 202.977 41.478 203.139C41.1158 203.301 40.7067 203.382 40.2507 203.382ZM58.631 189.882V191.16H53.543V189.882H58.631ZM55.0259 187.529H56.5344V196.887C56.5344 197.314 56.5962 197.633 56.7198 197.846C56.8477 198.055 57.0096 198.196 57.2056 198.268C57.4059 198.336 57.6168 198.37 57.8384 198.37C58.0046 198.37 58.141 198.362 58.2475 198.345C58.354 198.324 58.4393 198.306 58.5032 198.294L58.81 199.649C58.7077 199.687 58.565 199.726 58.3817 199.764C58.1985 199.806 57.9663 199.828 57.685 199.828C57.2589 199.828 56.8413 199.736 56.4322 199.553C56.0273 199.37 55.6907 199.091 55.4222 198.716C55.158 198.341 55.0259 197.868 55.0259 197.297V187.529ZM64.9112 199.904C63.9652 199.904 63.1491 199.696 62.4631 199.278C61.7812 198.856 61.255 198.268 60.8842 197.514C60.5178 196.755 60.3345 195.873 60.3345 194.868C60.3345 193.862 60.5178 192.976 60.8842 192.208C61.255 191.437 61.7706 190.836 62.4311 190.406C63.0959 189.971 63.8714 189.754 64.7578 189.754C65.2692 189.754 65.7741 189.839 66.2727 190.01C66.7713 190.18 67.2251 190.457 67.6342 190.841C68.0433 191.22 68.3693 191.723 68.6122 192.349C68.8551 192.976 68.9766 193.747 68.9766 194.663V195.302H61.4084V193.998H67.4425C67.4425 193.444 67.3317 192.95 67.1101 192.515C66.8928 192.081 66.5817 191.738 66.1768 191.486C65.7763 191.235 65.3033 191.109 64.7578 191.109C64.157 191.109 63.6371 191.258 63.1982 191.556C62.7635 191.851 62.429 192.234 62.1946 192.707C61.9602 193.18 61.843 193.687 61.843 194.228V195.098C61.843 195.839 61.9709 196.468 62.2266 196.983C62.4865 197.495 62.8466 197.885 63.3068 198.153C63.767 198.417 64.3018 198.549 64.9112 198.549C65.3075 198.549 65.6655 198.494 65.9851 198.383C66.3089 198.268 66.5881 198.098 66.8224 197.872C67.0568 197.642 67.2379 197.356 67.3658 197.015L68.8232 197.424C68.6697 197.919 68.4119 198.353 68.0497 198.728C67.6875 199.099 67.2401 199.389 66.7074 199.598C66.1747 199.802 65.576 199.904 64.9112 199.904ZM74.1605 199.93C73.5384 199.93 72.9737 199.813 72.4666 199.579C71.9595 199.34 71.5568 198.997 71.2585 198.549C70.9602 198.098 70.8111 197.552 70.8111 196.913C70.8111 196.351 70.9219 195.895 71.1435 195.545C71.3651 195.191 71.6612 194.914 72.032 194.714C72.4027 194.514 72.8118 194.365 73.2592 194.267C73.7109 194.164 74.1648 194.083 74.6207 194.024C75.2173 193.947 75.701 193.89 76.0717 193.851C76.4467 193.809 76.7195 193.738 76.8899 193.64C77.0646 193.542 77.152 193.372 77.152 193.129V193.078C77.152 192.447 76.9794 191.957 76.6342 191.608C76.2933 191.258 75.7756 191.083 75.081 191.083C74.3608 191.083 73.7962 191.241 73.3871 191.556C72.978 191.872 72.6903 192.208 72.5241 192.566L71.0923 192.055C71.348 191.458 71.6889 190.994 72.1151 190.662C72.5455 190.325 73.0142 190.091 73.5213 189.958C74.0327 189.822 74.5355 189.754 75.0298 189.754C75.3452 189.754 75.7074 189.792 76.1165 189.869C76.5298 189.941 76.9283 190.093 77.3118 190.323C77.6996 190.553 78.0213 190.9 78.277 191.365C78.5327 191.829 78.6605 192.451 78.6605 193.231V199.7H77.152V198.37H77.0753C76.973 198.583 76.8026 198.811 76.5639 199.054C76.3253 199.297 76.0078 199.504 75.6115 199.674C75.2152 199.845 74.7315 199.93 74.1605 199.93ZM74.3906 198.575C74.9872 198.575 75.4901 198.458 75.8991 198.223C76.3125 197.989 76.6236 197.686 76.8324 197.316C77.0455 196.945 77.152 196.555 77.152 196.146V194.765C77.0881 194.842 76.9474 194.912 76.7301 194.976C76.517 195.036 76.2699 195.089 75.9886 195.136C75.7116 195.179 75.4411 195.217 75.1768 195.251C74.9169 195.281 74.706 195.306 74.544 195.328C74.152 195.379 73.7855 195.462 73.4446 195.577C73.108 195.688 72.8352 195.856 72.6264 196.082C72.4219 196.304 72.3196 196.606 72.3196 196.99C72.3196 197.514 72.5135 197.91 72.9013 198.179C73.2933 198.443 73.7898 198.575 74.3906 198.575ZM85.4025 199.904C84.4821 199.904 83.6895 199.687 83.0247 199.253C82.3599 198.818 81.8485 198.219 81.4906 197.456C81.1326 196.694 80.9537 195.822 80.9537 194.842C80.9537 193.845 81.1369 192.965 81.5034 192.202C81.8741 191.435 82.3897 190.836 83.0502 190.406C83.715 189.971 84.4906 189.754 85.377 189.754C86.0673 189.754 86.6895 189.882 87.2434 190.137C87.7974 190.393 88.2512 190.751 88.6049 191.211C88.9586 191.672 89.1781 192.208 89.2633 192.822H87.7548C87.6397 192.375 87.3841 191.978 86.9877 191.633C86.5957 191.284 86.0673 191.109 85.4025 191.109C84.8145 191.109 84.2988 191.262 83.8556 191.569C83.4167 191.872 83.0737 192.3 82.8265 192.854C82.5836 193.404 82.4622 194.049 82.4622 194.791C82.4622 195.549 82.5815 196.21 82.8201 196.772C83.063 197.335 83.4039 197.772 83.8429 198.083C84.286 198.394 84.8059 198.549 85.4025 198.549C85.7946 198.549 86.1504 198.481 86.47 198.345C86.7896 198.208 87.0602 198.012 87.2818 197.757C87.5034 197.501 87.661 197.194 87.7548 196.836H89.2633C89.1781 197.416 88.9672 197.938 88.6305 198.402C88.2981 198.863 87.8571 199.229 87.3074 199.502C86.7619 199.77 86.127 199.904 85.4025 199.904ZM92.9771 193.794V199.7H91.4686V186.609H92.9771V191.416H93.1049C93.335 190.909 93.6802 190.506 94.1404 190.208C94.6049 189.905 95.2228 189.754 95.9941 189.754C96.6632 189.754 97.2491 189.888 97.752 190.157C98.2548 190.421 98.6447 190.828 98.9217 191.378C99.2029 191.923 99.3436 192.618 99.3436 193.461V199.7H97.8351V193.564C97.8351 192.784 97.6326 192.181 97.2278 191.755C96.8272 191.324 96.2711 191.109 95.5595 191.109C95.0652 191.109 94.622 191.213 94.2299 191.422C93.8422 191.631 93.5353 191.936 93.3095 192.336C93.0879 192.737 92.9771 193.223 92.9771 193.794ZM102.103 199.7V189.882H103.612V199.7H102.103ZM102.87 188.245C102.576 188.245 102.323 188.145 102.11 187.945C101.901 187.745 101.797 187.504 101.797 187.223C101.797 186.941 101.901 186.701 102.11 186.5C102.323 186.3 102.576 186.2 102.87 186.2C103.164 186.2 103.416 186.3 103.625 186.5C103.838 186.701 103.944 186.941 103.944 187.223C103.944 187.504 103.838 187.745 103.625 187.945C103.416 188.145 103.164 188.245 102.87 188.245ZM107.883 193.794V199.7H106.375V189.882H107.832V191.416H107.96C108.19 190.917 108.54 190.517 109.008 190.214C109.477 189.907 110.082 189.754 110.824 189.754C111.488 189.754 112.07 189.89 112.569 190.163C113.067 190.431 113.455 190.841 113.732 191.39C114.009 191.936 114.148 192.626 114.148 193.461V199.7H112.639V193.564C112.639 192.792 112.439 192.191 112.038 191.761C111.638 191.326 111.088 191.109 110.389 191.109C109.907 191.109 109.477 191.213 109.098 191.422C108.723 191.631 108.427 191.936 108.209 192.336C107.992 192.737 107.883 193.223 107.883 193.794ZM120.867 203.586C120.138 203.586 119.512 203.493 118.988 203.305C118.464 203.122 118.027 202.879 117.678 202.576C117.332 202.278 117.058 201.958 116.853 201.618L118.055 200.774C118.191 200.953 118.364 201.157 118.572 201.387C118.781 201.622 119.067 201.824 119.429 201.995C119.795 202.169 120.275 202.257 120.867 202.257C121.66 202.257 122.314 202.065 122.83 201.681C123.345 201.298 123.603 200.697 123.603 199.879V197.885H123.475C123.364 198.064 123.207 198.285 123.002 198.549C122.802 198.809 122.512 199.042 122.133 199.246C121.758 199.446 121.251 199.547 120.612 199.547C119.819 199.547 119.107 199.359 118.477 198.984C117.85 198.609 117.354 198.064 116.987 197.348C116.625 196.632 116.444 195.762 116.444 194.74C116.444 193.734 116.621 192.858 116.974 192.113C117.328 191.363 117.82 190.783 118.451 190.374C119.082 189.961 119.81 189.754 120.637 189.754C121.276 189.754 121.783 189.86 122.158 190.074C122.538 190.282 122.827 190.521 123.028 190.789C123.232 191.054 123.39 191.271 123.501 191.441H123.654V189.882H125.112V199.981C125.112 200.825 124.92 201.511 124.536 202.039C124.157 202.572 123.646 202.962 123.002 203.209C122.363 203.461 121.651 203.586 120.867 203.586ZM120.816 198.191C121.421 198.191 121.933 198.053 122.35 197.776C122.768 197.499 123.085 197.101 123.303 196.581C123.52 196.061 123.629 195.439 123.629 194.714C123.629 194.007 123.522 193.382 123.309 192.841C123.096 192.3 122.781 191.876 122.363 191.569C121.945 191.262 121.43 191.109 120.816 191.109C120.177 191.109 119.644 191.271 119.218 191.595C118.796 191.919 118.479 192.353 118.266 192.899C118.057 193.444 117.952 194.049 117.952 194.714C117.952 195.396 118.059 195.999 118.272 196.523C118.489 197.043 118.809 197.452 119.231 197.75C119.657 198.044 120.185 198.191 120.816 198.191ZM135.825 199.93C135.202 199.93 134.638 199.813 134.131 199.579C133.624 199.34 133.221 198.997 132.923 198.549C132.624 198.098 132.475 197.552 132.475 196.913C132.475 196.351 132.586 195.895 132.808 195.545C133.029 195.191 133.325 194.914 133.696 194.714C134.067 194.514 134.476 194.365 134.923 194.267C135.375 194.164 135.829 194.083 136.285 194.024C136.881 193.947 137.365 193.89 137.736 193.851C138.111 193.809 138.384 193.738 138.554 193.64C138.729 193.542 138.816 193.372 138.816 193.129V193.078C138.816 192.447 138.643 191.957 138.298 191.608C137.957 191.258 137.44 191.083 136.745 191.083C136.025 191.083 135.46 191.241 135.051 191.556C134.642 191.872 134.354 192.208 134.188 192.566L132.756 192.055C133.012 191.458 133.353 190.994 133.779 190.662C134.21 190.325 134.678 190.091 135.185 189.958C135.697 189.822 136.2 189.754 136.694 189.754C137.009 189.754 137.371 189.792 137.781 189.869C138.194 189.941 138.592 190.093 138.976 190.323C139.364 190.553 139.685 190.9 139.941 191.365C140.197 191.829 140.325 192.451 140.325 193.231V199.7H138.816V198.37H138.739C138.637 198.583 138.467 198.811 138.228 199.054C137.989 199.297 137.672 199.504 137.276 199.674C136.879 199.845 136.396 199.93 135.825 199.93ZM136.055 198.575C136.651 198.575 137.154 198.458 137.563 198.223C137.977 197.989 138.288 197.686 138.496 197.316C138.71 196.945 138.816 196.555 138.816 196.146V194.765C138.752 194.842 138.612 194.912 138.394 194.976C138.181 195.036 137.934 195.089 137.653 195.136C137.376 195.179 137.105 195.217 136.841 195.251C136.581 195.281 136.37 195.306 136.208 195.328C135.816 195.379 135.45 195.462 135.109 195.577C134.772 195.688 134.499 195.856 134.29 196.082C134.086 196.304 133.984 196.606 133.984 196.99C133.984 197.514 134.178 197.91 134.565 198.179C134.957 198.443 135.454 198.575 136.055 198.575ZM144.586 193.794V199.7H143.078V189.882H144.535V191.416H144.663C144.893 190.917 145.243 190.517 145.711 190.214C146.18 189.907 146.785 189.754 147.527 189.754C148.192 189.754 148.773 189.89 149.272 190.163C149.77 190.431 150.158 190.841 150.435 191.39C150.712 191.936 150.851 192.626 150.851 193.461V199.7H149.342V193.564C149.342 192.792 149.142 192.191 148.741 191.761C148.341 191.326 147.791 191.109 147.092 191.109C146.611 191.109 146.18 191.213 145.801 191.422C145.426 191.631 145.13 191.936 144.912 192.336C144.695 192.737 144.586 193.223 144.586 193.794ZM157.315 199.904C156.496 199.904 155.774 199.698 155.148 199.284C154.521 198.867 154.031 198.279 153.678 197.52C153.324 196.757 153.147 195.856 153.147 194.816C153.147 193.785 153.324 192.89 153.678 192.132C154.031 191.373 154.523 190.787 155.154 190.374C155.785 189.961 156.513 189.754 157.34 189.754C157.979 189.754 158.484 189.86 158.855 190.074C159.23 190.282 159.516 190.521 159.712 190.789C159.912 191.054 160.067 191.271 160.178 191.441H160.306V186.609H161.815V199.7H160.357V198.191H160.178C160.067 198.37 159.91 198.596 159.705 198.869C159.501 199.137 159.209 199.378 158.83 199.591C158.45 199.8 157.945 199.904 157.315 199.904ZM157.519 198.549C158.124 198.549 158.636 198.392 159.053 198.076C159.471 197.757 159.788 197.316 160.006 196.753C160.223 196.186 160.332 195.532 160.332 194.791C160.332 194.058 160.225 193.417 160.012 192.867C159.799 192.313 159.484 191.882 159.066 191.576C158.648 191.265 158.133 191.109 157.519 191.109C156.88 191.109 156.347 191.273 155.921 191.601C155.499 191.925 155.182 192.366 154.969 192.924C154.76 193.478 154.656 194.101 154.656 194.791C154.656 195.49 154.762 196.125 154.975 196.696C155.192 197.262 155.512 197.714 155.934 198.051C156.36 198.383 156.888 198.549 157.519 198.549ZM171.358 186.609V199.7H169.849V186.609H171.358ZM178.237 199.904C177.291 199.904 176.475 199.696 175.789 199.278C175.107 198.856 174.581 198.268 174.21 197.514C173.844 196.755 173.661 195.873 173.661 194.868C173.661 193.862 173.844 192.976 174.21 192.208C174.581 191.437 175.097 190.836 175.757 190.406C176.422 189.971 177.198 189.754 178.084 189.754C178.595 189.754 179.1 189.839 179.599 190.01C180.097 190.18 180.551 190.457 180.96 190.841C181.369 191.22 181.695 191.723 181.938 192.349C182.181 192.976 182.303 193.747 182.303 194.663V195.302H174.735V193.998H180.769C180.769 193.444 180.658 192.95 180.436 192.515C180.219 192.081 179.908 191.738 179.503 191.486C179.102 191.235 178.629 191.109 178.084 191.109C177.483 191.109 176.963 191.258 176.524 191.556C176.09 191.851 175.755 192.234 175.521 192.707C175.286 193.18 175.169 193.687 175.169 194.228V195.098C175.169 195.839 175.297 196.468 175.553 196.983C175.813 197.495 176.173 197.885 176.633 198.153C177.093 198.417 177.628 198.549 178.237 198.549C178.634 198.549 178.992 198.494 179.311 198.383C179.635 198.268 179.914 198.098 180.149 197.872C180.383 197.642 180.564 197.356 180.692 197.015L182.149 197.424C181.996 197.919 181.738 198.353 181.376 198.728C181.014 199.099 180.566 199.389 180.034 199.598C179.501 199.802 178.902 199.904 178.237 199.904ZM187.487 199.93C186.865 199.93 186.3 199.813 185.793 199.579C185.286 199.34 184.883 198.997 184.585 198.549C184.286 198.098 184.137 197.552 184.137 196.913C184.137 196.351 184.248 195.895 184.47 195.545C184.691 195.191 184.987 194.914 185.358 194.714C185.729 194.514 186.138 194.365 186.585 194.267C187.037 194.164 187.491 194.083 187.947 194.024C188.544 193.947 189.027 193.89 189.398 193.851C189.773 193.809 190.046 193.738 190.216 193.64C190.391 193.542 190.478 193.372 190.478 193.129V193.078C190.478 192.447 190.306 191.957 189.96 191.608C189.619 191.258 189.102 191.083 188.407 191.083C187.687 191.083 187.122 191.241 186.713 191.556C186.304 191.872 186.017 192.208 185.85 192.566L184.419 192.055C184.674 191.458 185.015 190.994 185.441 190.662C185.872 190.325 186.34 190.091 186.847 189.958C187.359 189.822 187.862 189.754 188.356 189.754C188.671 189.754 189.034 189.792 189.443 189.869C189.856 189.941 190.254 190.093 190.638 190.323C191.026 190.553 191.347 190.9 191.603 191.365C191.859 191.829 191.987 192.451 191.987 193.231V199.7H190.478V198.37H190.401C190.299 198.583 190.129 198.811 189.89 199.054C189.651 199.297 189.334 199.504 188.938 199.674C188.541 199.845 188.058 199.93 187.487 199.93ZM187.717 198.575C188.313 198.575 188.816 198.458 189.225 198.223C189.639 197.989 189.95 197.686 190.159 197.316C190.372 196.945 190.478 196.555 190.478 196.146V194.765C190.414 194.842 190.274 194.912 190.056 194.976C189.843 195.036 189.596 195.089 189.315 195.136C189.038 195.179 188.767 195.217 188.503 195.251C188.243 195.281 188.032 195.306 187.87 195.328C187.478 195.379 187.112 195.462 186.771 195.577C186.434 195.688 186.161 195.856 185.953 196.082C185.748 196.304 185.646 196.606 185.646 196.99C185.646 197.514 185.84 197.91 186.227 198.179C186.619 198.443 187.116 198.575 187.717 198.575ZM194.74 199.7V189.882H196.197V191.365H196.3C196.479 190.879 196.803 190.485 197.271 190.182C197.74 189.88 198.268 189.728 198.857 189.728C198.967 189.728 199.106 189.73 199.272 189.735C199.438 189.739 199.564 189.745 199.649 189.754V191.288C199.598 191.275 199.481 191.256 199.298 191.23C199.119 191.201 198.929 191.186 198.729 191.186C198.251 191.186 197.825 191.286 197.45 191.486C197.08 191.682 196.786 191.955 196.568 192.304C196.355 192.65 196.249 193.044 196.249 193.487V199.7H194.74ZM202.946 193.794V199.7H201.437V189.882H202.895V191.416H203.023C203.253 190.917 203.602 190.517 204.071 190.214C204.54 189.907 205.145 189.754 205.886 189.754C206.551 189.754 207.133 189.89 207.631 190.163C208.13 190.431 208.518 190.841 208.795 191.39C209.072 191.936 209.21 192.626 209.21 193.461V199.7H207.702V193.564C207.702 192.792 207.501 192.191 207.101 191.761C206.7 191.326 206.15 191.109 205.452 191.109C204.97 191.109 204.54 191.213 204.16 191.422C203.785 191.631 203.489 191.936 203.272 192.336C203.055 192.737 202.946 193.223 202.946 193.794ZM211.967 199.7V189.882H213.475V199.7H211.967ZM212.734 188.245C212.44 188.245 212.186 188.145 211.973 187.945C211.764 187.745 211.66 187.504 211.66 187.223C211.66 186.941 211.764 186.701 211.973 186.5C212.186 186.3 212.44 186.2 212.734 186.2C213.028 186.2 213.279 186.3 213.488 186.5C213.701 186.701 213.808 186.941 213.808 187.223C213.808 187.504 213.701 187.745 213.488 187.945C213.279 188.145 213.028 188.245 212.734 188.245ZM217.747 193.794V199.7H216.238V189.882H217.695V191.416H217.823C218.053 190.917 218.403 190.517 218.872 190.214C219.34 189.907 219.945 189.754 220.687 189.754C221.352 189.754 221.933 189.89 222.432 190.163C222.931 190.431 223.318 190.841 223.595 191.39C223.872 191.936 224.011 192.626 224.011 193.461V199.7H222.502V193.564C222.502 192.792 222.302 192.191 221.901 191.761C221.501 191.326 220.951 191.109 220.252 191.109C219.771 191.109 219.34 191.213 218.961 191.422C218.586 191.631 218.29 191.936 218.073 192.336C217.855 192.737 217.747 193.223 217.747 193.794ZM230.73 203.586C230.002 203.586 229.375 203.493 228.851 203.305C228.327 203.122 227.89 202.879 227.541 202.576C227.196 202.278 226.921 201.958 226.716 201.618L227.918 200.774C228.054 200.953 228.227 201.157 228.436 201.387C228.645 201.622 228.93 201.824 229.292 201.995C229.659 202.169 230.138 202.257 230.73 202.257C231.523 202.257 232.177 202.065 232.693 201.681C233.208 201.298 233.466 200.697 233.466 199.879V197.885H233.338C233.228 198.064 233.07 198.285 232.865 198.549C232.665 198.809 232.375 199.042 231.996 199.246C231.621 199.446 231.114 199.547 230.475 199.547C229.682 199.547 228.971 199.359 228.34 198.984C227.713 198.609 227.217 198.064 226.85 197.348C226.488 196.632 226.307 195.762 226.307 194.74C226.307 193.734 226.484 192.858 226.838 192.113C227.191 191.363 227.684 190.783 228.314 190.374C228.945 189.961 229.674 189.754 230.5 189.754C231.14 189.754 231.647 189.86 232.022 190.074C232.401 190.282 232.691 190.521 232.891 190.789C233.096 191.054 233.253 191.271 233.364 191.441H233.517V189.882H234.975V199.981C234.975 200.825 234.783 201.511 234.4 202.039C234.02 202.572 233.509 202.962 232.865 203.209C232.226 203.461 231.515 203.586 230.73 203.586ZM230.679 198.191C231.284 198.191 231.796 198.053 232.213 197.776C232.631 197.499 232.949 197.101 233.166 196.581C233.383 196.061 233.492 195.439 233.492 194.714C233.492 194.007 233.385 193.382 233.172 192.841C232.959 192.3 232.644 191.876 232.226 191.569C231.809 191.262 231.293 191.109 230.679 191.109C230.04 191.109 229.507 191.271 229.081 191.595C228.659 191.919 228.342 192.353 228.129 192.899C227.92 193.444 227.816 194.049 227.816 194.714C227.816 195.396 227.922 195.999 228.135 196.523C228.353 197.043 228.672 197.452 229.094 197.75C229.52 198.044 230.049 198.191 230.679 198.191ZM242.799 189.882H244.307V200.416C244.307 201.021 244.203 201.545 243.994 201.988C243.789 202.431 243.478 202.775 243.061 203.017C242.647 203.26 242.125 203.382 241.495 203.382C241.444 203.382 241.392 203.382 241.341 203.382C241.29 203.382 241.239 203.382 241.188 203.382V201.976C241.239 201.976 241.286 201.976 241.328 201.976C241.371 201.976 241.418 201.976 241.469 201.976C241.929 201.976 242.266 201.839 242.479 201.566C242.692 201.298 242.799 200.914 242.799 200.416V189.882ZM243.54 188.245C243.246 188.245 242.993 188.145 242.779 187.945C242.571 187.745 242.466 187.504 242.466 187.223C242.466 186.941 242.571 186.701 242.779 186.5C242.993 186.3 243.246 186.2 243.54 186.2C243.834 186.2 244.086 186.3 244.294 186.5C244.507 186.701 244.614 186.941 244.614 187.223C244.614 187.504 244.507 187.745 244.294 187.945C244.086 188.145 243.834 188.245 243.54 188.245ZM251.059 199.904C250.172 199.904 249.395 199.694 248.726 199.272C248.061 198.85 247.541 198.26 247.166 197.501C246.795 196.743 246.61 195.856 246.61 194.842C246.61 193.819 246.795 192.927 247.166 192.164C247.541 191.401 248.061 190.809 248.726 190.387C249.395 189.965 250.172 189.754 251.059 189.754C251.945 189.754 252.721 189.965 253.385 190.387C254.055 190.809 254.574 191.401 254.945 192.164C255.32 192.927 255.508 193.819 255.508 194.842C255.508 195.856 255.32 196.743 254.945 197.501C254.574 198.26 254.055 198.85 253.385 199.272C252.721 199.694 251.945 199.904 251.059 199.904ZM251.059 198.549C251.732 198.549 252.286 198.377 252.721 198.032C253.155 197.686 253.477 197.233 253.686 196.67C253.895 196.108 253.999 195.498 253.999 194.842C253.999 194.186 253.895 193.574 253.686 193.007C253.477 192.441 253.155 191.983 252.721 191.633C252.286 191.284 251.732 191.109 251.059 191.109C250.385 191.109 249.831 191.284 249.397 191.633C248.962 191.983 248.64 192.441 248.432 193.007C248.223 193.574 248.118 194.186 248.118 194.842C248.118 195.498 248.223 196.108 248.432 196.67C248.64 197.233 248.962 197.686 249.397 198.032C249.831 198.377 250.385 198.549 251.059 198.549ZM263.998 195.686V189.882H265.506V199.7H263.998V198.038H263.896C263.665 198.537 263.308 198.961 262.822 199.31C262.336 199.655 261.722 199.828 260.981 199.828C260.367 199.828 259.822 199.694 259.344 199.425C258.867 199.152 258.492 198.743 258.219 198.198C257.947 197.648 257.81 196.956 257.81 196.12V189.882H259.319V196.018C259.319 196.734 259.519 197.305 259.92 197.731C260.325 198.157 260.84 198.37 261.467 198.37C261.842 198.37 262.223 198.275 262.611 198.083C263.003 197.891 263.331 197.597 263.595 197.201C263.864 196.804 263.998 196.299 263.998 195.686ZM268.269 199.7V189.882H269.727V191.365H269.829C270.008 190.879 270.332 190.485 270.801 190.182C271.269 189.88 271.798 189.728 272.386 189.728C272.497 189.728 272.635 189.73 272.801 189.735C272.968 189.739 273.093 189.745 273.178 189.754V191.288C273.127 191.275 273.01 191.256 272.827 191.23C272.648 191.201 272.458 191.186 272.258 191.186C271.781 191.186 271.355 191.286 270.98 191.486C270.609 191.682 270.315 191.955 270.097 192.304C269.884 192.65 269.778 193.044 269.778 193.487V199.7H268.269ZM276.475 193.794V199.7H274.967V189.882H276.424V191.416H276.552C276.782 190.917 277.131 190.517 277.6 190.214C278.069 189.907 278.674 189.754 279.415 189.754C280.08 189.754 280.662 189.89 281.161 190.163C281.659 190.431 282.047 190.841 282.324 191.39C282.601 191.936 282.739 192.626 282.739 193.461V199.7H281.231V193.564C281.231 192.792 281.031 192.191 280.63 191.761C280.229 191.326 279.68 191.109 278.981 191.109C278.499 191.109 278.069 191.213 277.69 191.422C277.315 191.631 277.018 191.936 276.801 192.336C276.584 192.737 276.475 193.223 276.475 193.794ZM289.612 199.904C288.666 199.904 287.85 199.696 287.164 199.278C286.482 198.856 285.956 198.268 285.585 197.514C285.219 196.755 285.036 195.873 285.036 194.868C285.036 193.862 285.219 192.976 285.585 192.208C285.956 191.437 286.472 190.836 287.132 190.406C287.797 189.971 288.573 189.754 289.459 189.754C289.97 189.754 290.475 189.839 290.974 190.01C291.472 190.18 291.926 190.457 292.335 190.841C292.744 191.22 293.07 191.723 293.313 192.349C293.556 192.976 293.678 193.747 293.678 194.663V195.302H286.11V193.998H292.144C292.144 193.444 292.033 192.95 291.811 192.515C291.594 192.081 291.283 191.738 290.878 191.486C290.477 191.235 290.004 191.109 289.459 191.109C288.858 191.109 288.338 191.258 287.899 191.556C287.465 191.851 287.13 192.234 286.896 192.707C286.661 193.18 286.544 193.687 286.544 194.228V195.098C286.544 195.839 286.672 196.468 286.928 196.983C287.188 197.495 287.548 197.885 288.008 198.153C288.468 198.417 289.003 198.549 289.612 198.549C290.009 198.549 290.367 198.494 290.686 198.383C291.01 198.268 291.289 198.098 291.524 197.872C291.758 197.642 291.939 197.356 292.067 197.015L293.524 197.424C293.371 197.919 293.113 198.353 292.751 198.728C292.389 199.099 291.941 199.389 291.409 199.598C290.876 199.802 290.277 199.904 289.612 199.904ZM296.645 203.382C296.39 203.382 296.162 203.36 295.961 203.318C295.761 203.279 295.623 203.241 295.546 203.203L295.929 201.873C296.296 201.967 296.62 202.001 296.901 201.976C297.182 201.95 297.431 201.824 297.649 201.598C297.87 201.377 298.073 201.017 298.256 200.518L298.537 199.751L294.907 189.882H296.543L299.253 197.706H299.355L302.066 189.882H303.702L299.534 201.132C299.347 201.639 299.115 202.059 298.838 202.391C298.561 202.728 298.239 202.977 297.873 203.139C297.51 203.301 297.101 203.382 296.645 203.382ZM310.756 199.7V189.882H312.264V199.7H310.756ZM311.523 188.245C311.229 188.245 310.975 188.145 310.762 187.945C310.553 187.745 310.449 187.504 310.449 187.223C310.449 186.941 310.553 186.701 310.762 186.5C310.975 186.3 311.229 186.2 311.523 186.2C311.817 186.2 312.068 186.3 312.277 186.5C312.49 186.701 312.597 186.941 312.597 187.223C312.597 187.504 312.49 187.745 312.277 187.945C312.068 188.145 311.817 188.245 311.523 188.245ZM321.982 192.081L320.627 192.464C320.541 192.238 320.416 192.019 320.249 191.806C320.088 191.588 319.866 191.409 319.585 191.269C319.303 191.128 318.943 191.058 318.504 191.058C317.904 191.058 317.403 191.196 317.002 191.473C316.606 191.746 316.408 192.093 316.408 192.515C316.408 192.89 316.544 193.186 316.817 193.404C317.09 193.621 317.516 193.802 318.095 193.947L319.553 194.305C320.431 194.518 321.085 194.844 321.515 195.283C321.945 195.718 322.161 196.278 322.161 196.964C322.161 197.527 321.999 198.029 321.675 198.473C321.355 198.916 320.908 199.265 320.333 199.521C319.757 199.777 319.088 199.904 318.325 199.904C317.324 199.904 316.495 199.687 315.839 199.253C315.183 198.818 314.767 198.183 314.593 197.348L316.024 196.99C316.161 197.518 316.419 197.914 316.798 198.179C317.181 198.443 317.682 198.575 318.3 198.575C319.003 198.575 319.561 198.426 319.975 198.128C320.392 197.825 320.601 197.463 320.601 197.041C320.601 196.7 320.482 196.414 320.243 196.184C320.004 195.95 319.638 195.775 319.144 195.66L317.507 195.277C316.608 195.064 315.948 194.733 315.526 194.286C315.108 193.834 314.899 193.27 314.899 192.592C314.899 192.038 315.055 191.548 315.366 191.122C315.681 190.696 316.11 190.361 316.651 190.118C317.196 189.875 317.814 189.754 318.504 189.754C319.476 189.754 320.239 189.967 320.793 190.393C321.351 190.819 321.747 191.382 321.982 192.081ZM335.681 195.686V189.882H337.19V199.7H335.681V198.038H335.579C335.349 198.537 334.991 198.961 334.505 199.31C334.02 199.655 333.406 199.828 332.664 199.828C332.051 199.828 331.505 199.694 331.028 199.425C330.551 199.152 330.176 198.743 329.903 198.198C329.63 197.648 329.494 196.956 329.494 196.12V189.882H331.002V196.018C331.002 196.734 331.203 197.305 331.603 197.731C332.008 198.157 332.524 198.37 333.15 198.37C333.525 198.37 333.907 198.275 334.294 198.083C334.686 197.891 335.015 197.597 335.279 197.201C335.547 196.804 335.681 196.299 335.681 195.686ZM341.461 193.794V199.7H339.953V189.882H341.41V191.416H341.538C341.768 190.917 342.118 190.517 342.586 190.214C343.055 189.907 343.66 189.754 344.402 189.754C345.067 189.754 345.648 189.89 346.147 190.163C346.645 190.431 347.033 190.841 347.31 191.39C347.587 191.936 347.726 192.626 347.726 193.461V199.7H346.217V193.564C346.217 192.792 346.017 192.191 345.616 191.761C345.216 191.326 344.666 191.109 343.967 191.109C343.486 191.109 343.055 191.213 342.676 191.422C342.301 191.631 342.005 191.936 341.787 192.336C341.57 192.737 341.461 193.223 341.461 193.794ZM350.482 199.7V189.882H351.991V199.7H350.482ZM351.249 188.245C350.955 188.245 350.702 188.145 350.489 187.945C350.28 187.745 350.175 187.504 350.175 187.223C350.175 186.941 350.28 186.701 350.489 186.5C350.702 186.3 350.955 186.2 351.249 186.2C351.543 186.2 351.795 186.3 352.004 186.5C352.217 186.701 352.323 186.941 352.323 187.223C352.323 187.504 352.217 187.745 352.004 187.945C351.795 188.145 351.543 188.245 351.249 188.245ZM361.453 203.382V198.191H361.325C361.214 198.37 361.056 198.596 360.852 198.869C360.647 199.137 360.355 199.378 359.976 199.591C359.597 199.8 359.092 199.904 358.461 199.904C357.643 199.904 356.921 199.698 356.294 199.284C355.668 198.867 355.178 198.279 354.824 197.52C354.47 196.757 354.294 195.856 354.294 194.816C354.294 193.785 354.47 192.89 354.824 192.132C355.178 191.373 355.67 190.787 356.301 190.374C356.931 189.961 357.66 189.754 358.487 189.754C359.126 189.754 359.631 189.86 360.002 190.074C360.377 190.282 360.662 190.521 360.858 190.789C361.058 191.054 361.214 191.271 361.325 191.441H361.504V189.882H362.961V203.382H361.453ZM358.666 198.549C359.271 198.549 359.782 198.392 360.2 198.076C360.617 197.757 360.935 197.316 361.152 196.753C361.369 196.186 361.478 195.532 361.478 194.791C361.478 194.058 361.372 193.417 361.159 192.867C360.945 192.313 360.63 191.882 360.213 191.576C359.795 191.265 359.279 191.109 358.666 191.109C358.026 191.109 357.494 191.273 357.068 191.601C356.646 191.925 356.328 192.366 356.115 192.924C355.906 193.478 355.802 194.101 355.802 194.791C355.802 195.49 355.909 196.125 356.122 196.696C356.339 197.262 356.659 197.714 357.08 198.051C357.507 198.383 358.035 198.549 358.666 198.549ZM371.91 195.686V189.882H373.419V199.7H371.91V198.038H371.808C371.578 198.537 371.22 198.961 370.734 199.31C370.248 199.655 369.634 199.828 368.893 199.828C368.279 199.828 367.734 199.694 367.257 199.425C366.779 199.152 366.404 198.743 366.132 198.198C365.859 197.648 365.722 196.956 365.722 196.12V189.882H367.231V196.018C367.231 196.734 367.431 197.305 367.832 197.731C368.237 198.157 368.752 198.37 369.379 198.37C369.754 198.37 370.135 198.275 370.523 198.083C370.915 197.891 371.243 197.597 371.507 197.201C371.776 196.804 371.91 196.299 371.91 195.686ZM380.298 199.904C379.352 199.904 378.536 199.696 377.85 199.278C377.168 198.856 376.642 198.268 376.271 197.514C375.904 196.755 375.721 195.873 375.721 194.868C375.721 193.862 375.904 192.976 376.271 192.208C376.642 191.437 377.157 190.836 377.818 190.406C378.483 189.971 379.258 189.754 380.145 189.754C380.656 189.754 381.161 189.839 381.659 190.01C382.158 190.18 382.612 190.457 383.021 190.841C383.43 191.22 383.756 191.723 383.999 192.349C384.242 192.976 384.363 193.747 384.363 194.663V195.302H376.795V193.998H382.829C382.829 193.444 382.718 192.95 382.497 192.515C382.279 192.081 381.968 191.738 381.564 191.486C381.163 191.235 380.69 191.109 380.145 191.109C379.544 191.109 379.024 191.258 378.585 191.556C378.15 191.851 377.816 192.234 377.581 192.707C377.347 193.18 377.23 193.687 377.23 194.228V195.098C377.23 195.839 377.358 196.468 377.613 196.983C377.873 197.495 378.233 197.885 378.694 198.153C379.154 198.417 379.689 198.549 380.298 198.549C380.694 198.549 381.052 198.494 381.372 198.383C381.696 198.268 381.975 198.098 382.209 197.872C382.444 197.642 382.625 197.356 382.752 197.015L384.21 197.424C384.056 197.919 383.799 198.353 383.436 198.728C383.074 199.099 382.627 199.389 382.094 199.598C381.561 199.802 380.963 199.904 380.298 199.904ZM391.925 199.7V186.609H399.775V188.015H393.51V192.439H399.186V193.845H393.51V199.7H391.925ZM405.553 199.904C404.667 199.904 403.889 199.694 403.22 199.272C402.555 198.85 402.035 198.26 401.66 197.501C401.289 196.743 401.104 195.856 401.104 194.842C401.104 193.819 401.289 192.927 401.66 192.164C402.035 191.401 402.555 190.809 403.22 190.387C403.889 189.965 404.667 189.754 405.553 189.754C406.439 189.754 407.215 189.965 407.88 190.387C408.549 190.809 409.069 191.401 409.439 192.164C409.814 192.927 410.002 193.819 410.002 194.842C410.002 195.856 409.814 196.743 409.439 197.501C409.069 198.26 408.549 198.85 407.88 199.272C407.215 199.694 406.439 199.904 405.553 199.904ZM405.553 198.549C406.226 198.549 406.78 198.377 407.215 198.032C407.65 197.686 407.971 197.233 408.18 196.67C408.389 196.108 408.493 195.498 408.493 194.842C408.493 194.186 408.389 193.574 408.18 193.007C407.971 192.441 407.65 191.983 407.215 191.633C406.78 191.284 406.226 191.109 405.553 191.109C404.88 191.109 404.326 191.284 403.891 191.633C403.456 191.983 403.135 192.441 402.926 193.007C402.717 193.574 402.613 194.186 402.613 194.842C402.613 195.498 402.717 196.108 402.926 196.67C403.135 197.233 403.456 197.686 403.891 198.032C404.326 198.377 404.88 198.549 405.553 198.549ZM413.813 186.609V199.7H412.305V186.609H413.813ZM418.085 186.609V199.7H416.576V186.609H418.085ZM424.836 199.904C423.95 199.904 423.172 199.694 422.503 199.272C421.838 198.85 421.318 198.26 420.943 197.501C420.573 196.743 420.387 195.856 420.387 194.842C420.387 193.819 420.573 192.927 420.943 192.164C421.318 191.401 421.838 190.809 422.503 190.387C423.172 189.965 423.95 189.754 424.836 189.754C425.722 189.754 426.498 189.965 427.163 190.387C427.832 190.809 428.352 191.401 428.722 192.164C429.097 192.927 429.285 193.819 429.285 194.842C429.285 195.856 429.097 196.743 428.722 197.501C428.352 198.26 427.832 198.85 427.163 199.272C426.498 199.694 425.722 199.904 424.836 199.904ZM424.836 198.549C425.509 198.549 426.063 198.377 426.498 198.032C426.933 197.686 427.254 197.233 427.463 196.67C427.672 196.108 427.776 195.498 427.776 194.842C427.776 194.186 427.672 193.574 427.463 193.007C427.254 192.441 426.933 191.983 426.498 191.633C426.063 191.284 425.509 191.109 424.836 191.109C424.163 191.109 423.609 191.284 423.174 191.633C422.74 191.983 422.418 192.441 422.209 193.007C422 193.574 421.896 194.186 421.896 194.842C421.896 195.498 422 196.108 422.209 196.67C422.418 197.233 422.74 197.686 423.174 198.032C423.609 198.377 424.163 198.549 424.836 198.549ZM433.478 199.7L430.487 189.882H432.072L434.194 197.399H434.296L436.393 189.882H438.004L440.075 197.373H440.177L442.299 189.882H443.884L440.893 199.7H439.41L437.262 192.157H437.109L434.961 199.7H433.478ZM445.879 199.7V189.882H447.387V199.7H445.879ZM446.646 188.245C446.352 188.245 446.098 188.145 445.885 187.945C445.676 187.745 445.572 187.504 445.572 187.223C445.572 186.941 445.676 186.701 445.885 186.5C446.098 186.3 446.352 186.2 446.646 186.2C446.94 186.2 447.191 186.3 447.4 186.5C447.613 186.701 447.72 186.941 447.72 187.223C447.72 187.504 447.613 187.745 447.4 187.945C447.191 188.145 446.94 188.245 446.646 188.245ZM451.659 193.794V199.7H450.15V189.882H451.608V191.416H451.735C451.966 190.917 452.315 190.517 452.784 190.214C453.252 189.907 453.858 189.754 454.599 189.754C455.264 189.754 455.846 189.89 456.344 190.163C456.843 190.431 457.23 190.841 457.507 191.39C457.784 191.936 457.923 192.626 457.923 193.461V199.7H456.414V193.564C456.414 192.792 456.214 192.191 455.814 191.761C455.413 191.326 454.863 191.109 454.164 191.109C453.683 191.109 453.252 191.213 452.873 191.422C452.498 191.631 452.202 191.936 451.985 192.336C451.767 192.737 451.659 193.223 451.659 193.794ZM464.643 203.586C463.914 203.586 463.287 203.493 462.763 203.305C462.239 203.122 461.802 202.879 461.453 202.576C461.108 202.278 460.833 201.958 460.628 201.618L461.83 200.774C461.966 200.953 462.139 201.157 462.348 201.387C462.557 201.622 462.842 201.824 463.204 201.995C463.571 202.169 464.05 202.257 464.643 202.257C465.435 202.257 466.089 202.065 466.605 201.681C467.121 201.298 467.378 200.697 467.378 199.879V197.885H467.251C467.14 198.064 466.982 198.285 466.778 198.549C466.577 198.809 466.287 199.042 465.908 199.246C465.533 199.446 465.026 199.547 464.387 199.547C463.594 199.547 462.883 199.359 462.252 198.984C461.626 198.609 461.129 198.064 460.763 197.348C460.4 196.632 460.219 195.762 460.219 194.74C460.219 193.734 460.396 192.858 460.75 192.113C461.104 191.363 461.596 190.783 462.226 190.374C462.857 189.961 463.586 189.754 464.412 189.754C465.052 189.754 465.559 189.86 465.934 190.074C466.313 190.282 466.603 190.521 466.803 190.789C467.008 191.054 467.165 191.271 467.276 191.441H467.43V189.882H468.887V199.981C468.887 200.825 468.695 201.511 468.312 202.039C467.932 202.572 467.421 202.962 466.778 203.209C466.138 203.461 465.427 203.586 464.643 203.586ZM464.591 198.191C465.197 198.191 465.708 198.053 466.126 197.776C466.543 197.499 466.861 197.101 467.078 196.581C467.295 196.061 467.404 195.439 467.404 194.714C467.404 194.007 467.297 193.382 467.084 192.841C466.871 192.3 466.556 191.876 466.138 191.569C465.721 191.262 465.205 191.109 464.591 191.109C463.952 191.109 463.42 191.271 462.993 191.595C462.572 191.919 462.254 192.353 462.041 192.899C461.832 193.444 461.728 194.049 461.728 194.714C461.728 195.396 461.834 195.999 462.047 196.523C462.265 197.043 462.584 197.452 463.006 197.75C463.432 198.044 463.961 198.191 464.591 198.191ZM3.96307 228.7L0.383523 215.609H1.99432L4.73011 226.271H4.85795L7.64489 215.609H9.43466L12.2216 226.271H12.3494L15.0852 215.609H16.696L13.1165 228.7H11.4801L8.59091 218.268H8.48864L5.59943 228.7H3.96307ZM21.669 228.904C20.723 228.904 19.907 228.696 19.2209 228.278C18.5391 227.856 18.0128 227.268 17.642 226.514C17.2756 225.755 17.0923 224.873 17.0923 223.868C17.0923 222.862 17.2756 221.976 17.642 221.208C18.0128 220.437 18.5284 219.836 19.1889 219.406C19.8537 218.971 20.6293 218.754 21.5156 218.754C22.027 218.754 22.532 218.839 23.0305 219.01C23.5291 219.18 23.983 219.457 24.392 219.841C24.8011 220.22 25.1271 220.723 25.37 221.349C25.6129 221.976 25.7344 222.747 25.7344 223.663V224.302H18.1662V222.998H24.2003C24.2003 222.444 24.0895 221.95 23.8679 221.515C23.6506 221.081 23.3395 220.738 22.9347 220.486C22.5341 220.235 22.0611 220.109 21.5156 220.109C20.9148 220.109 20.3949 220.258 19.956 220.556C19.5213 220.851 19.1868 221.234 18.9524 221.707C18.718 222.18 18.6009 222.687 18.6009 223.228V224.098C18.6009 224.839 18.7287 225.468 18.9844 225.983C19.2443 226.495 19.6044 226.885 20.0646 227.153C20.5249 227.417 21.0597 227.549 21.669 227.549C22.0653 227.549 22.4233 227.494 22.7429 227.383C23.0668 227.268 23.3459 227.098 23.5803 226.872C23.8146 226.642 23.9957 226.356 24.1236 226.015L25.581 226.424C25.4276 226.919 25.1697 227.353 24.8075 227.728C24.4453 228.099 23.9979 228.389 23.4652 228.598C22.9325 228.802 22.3338 228.904 21.669 228.904ZM29.3331 215.609V220.109H27.9268V215.609H29.3331ZM33.5279 215.609V228.7H32.0194V215.609H33.5279ZM37.7994 215.609V228.7H36.2908V215.609H37.7994ZM47.1333 222.794V228.7H45.6248V215.609H47.1333V220.416H47.2612C47.4913 219.909 47.8365 219.506 48.2967 219.208C48.7612 218.905 49.3791 218.754 50.1504 218.754C50.8194 218.754 51.4054 218.888 51.9082 219.157C52.411 219.421 52.801 219.828 53.0779 220.378C53.3592 220.923 53.4998 221.618 53.4998 222.461V228.7H51.9913V222.564C51.9913 221.784 51.7889 221.181 51.3841 220.755C50.9835 220.324 50.4274 220.109 49.7157 220.109C49.2214 220.109 48.7782 220.213 48.3862 220.422C47.9984 220.631 47.6916 220.936 47.4657 221.336C47.2441 221.737 47.1333 222.223 47.1333 222.794ZM60.3761 228.904C59.43 228.904 58.614 228.696 57.9279 228.278C57.2461 227.856 56.7198 227.268 56.3491 226.514C55.9826 225.755 55.7994 224.873 55.7994 223.868C55.7994 222.862 55.9826 221.976 56.3491 221.208C56.7198 220.437 57.2354 219.836 57.896 219.406C58.5607 218.971 59.3363 218.754 60.2227 218.754C60.734 218.754 61.239 218.839 61.7376 219.01C62.2362 219.18 62.69 219.457 63.0991 219.841C63.5082 220.22 63.8342 220.723 64.0771 221.349C64.32 221.976 64.4414 222.747 64.4414 223.663V224.302H56.8732V222.998H62.9073C62.9073 222.444 62.7965 221.95 62.5749 221.515C62.3576 221.081 62.0465 220.738 61.6417 220.486C61.2411 220.235 60.7681 220.109 60.2227 220.109C59.6218 220.109 59.1019 220.258 58.663 220.556C58.2283 220.851 57.8938 221.234 57.6594 221.707C57.4251 222.18 57.3079 222.687 57.3079 223.228V224.098C57.3079 224.839 57.4357 225.468 57.6914 225.983C57.9513 226.495 58.3114 226.885 58.7717 227.153C59.2319 227.417 59.7667 227.549 60.3761 227.549C60.7724 227.549 61.1303 227.494 61.4499 227.383C61.7738 227.268 62.0529 227.098 62.2873 226.872C62.5217 226.642 62.7028 226.356 62.8306 226.015L64.288 226.424C64.1346 226.919 63.8768 227.353 63.5146 227.728C63.1523 228.099 62.7049 228.389 62.1722 228.598C61.6396 228.802 61.0408 228.904 60.3761 228.904ZM68.2447 215.609V228.7H66.7362V215.609H68.2447ZM71.0076 232.382V218.882H72.465V220.441H72.644C72.7548 220.271 72.9082 220.054 73.1042 219.789C73.3045 219.521 73.59 219.282 73.9608 219.074C74.3358 218.86 74.8429 218.754 75.4821 218.754C76.3088 218.754 77.0375 218.961 77.6681 219.374C78.2988 219.787 78.791 220.373 79.1447 221.132C79.4984 221.89 79.6752 222.785 79.6752 223.816C79.6752 224.856 79.4984 225.757 79.1447 226.52C78.791 227.279 78.301 227.867 77.6745 228.284C77.0481 228.698 76.3258 228.904 75.5076 228.904C74.877 228.904 74.372 228.8 73.9927 228.591C73.6135 228.378 73.3216 228.137 73.117 227.869C72.9125 227.596 72.7548 227.37 72.644 227.191H72.5162V232.382H71.0076ZM72.4906 223.791C72.4906 224.532 72.5993 225.186 72.8166 225.753C73.0339 226.316 73.3514 226.757 73.769 227.076C74.1866 227.392 74.698 227.549 75.3031 227.549C75.9338 227.549 76.4601 227.383 76.8819 227.051C77.3081 226.714 77.6277 226.262 77.8407 225.696C78.0581 225.125 78.1667 224.49 78.1667 223.791C78.1667 223.101 78.0602 222.478 77.8471 221.924C77.6383 221.366 77.3208 220.925 76.8947 220.601C76.4728 220.273 75.9423 220.109 75.3031 220.109C74.6895 220.109 74.1738 220.265 73.7562 220.576C73.3386 220.882 73.0233 221.313 72.8102 221.867C72.5971 222.417 72.4906 223.058 72.4906 223.791ZM91.002 232.586C90.2733 232.586 89.6468 232.493 89.1227 232.305C88.5985 232.122 88.1618 231.879 87.8123 231.576C87.4672 231.278 87.1923 230.958 86.9877 230.618L88.1895 229.774C88.3258 229.953 88.4984 230.157 88.7072 230.387C88.916 230.622 89.2015 230.824 89.5637 230.995C89.9302 231.169 90.4096 231.257 91.002 231.257C91.7946 231.257 92.4487 231.065 92.9643 230.681C93.4799 230.298 93.7377 229.697 93.7377 228.879V226.885H93.6099C93.4991 227.064 93.3414 227.285 93.1369 227.549C92.9366 227.809 92.6468 228.042 92.2676 228.246C91.8926 228.446 91.3855 228.547 90.7463 228.547C89.9537 228.547 89.242 228.359 88.6113 227.984C87.9849 227.609 87.4885 227.064 87.122 226.348C86.7598 225.632 86.5787 224.762 86.5787 223.74C86.5787 222.734 86.7555 221.858 87.1092 221.113C87.4629 220.363 87.9551 219.783 88.5858 219.374C89.2164 218.961 89.9451 218.754 90.7718 218.754C91.411 218.754 91.9181 218.86 92.2931 219.074C92.6724 219.282 92.9622 219.521 93.1625 219.789C93.367 220.054 93.5247 220.271 93.6355 220.441H93.7889V218.882H95.2463V228.981C95.2463 229.825 95.0545 230.511 94.671 231.039C94.2917 231.572 93.7804 231.962 93.1369 232.209C92.4977 232.461 91.786 232.586 91.002 232.586ZM90.9508 227.191C91.5559 227.191 92.0673 227.053 92.4849 226.776C92.9025 226.499 93.22 226.101 93.4373 225.581C93.6547 225.061 93.7633 224.439 93.7633 223.714C93.7633 223.007 93.6568 222.382 93.4437 221.841C93.2306 221.3 92.9153 220.876 92.4977 220.569C92.0801 220.262 91.5645 220.109 90.9508 220.109C90.3116 220.109 89.7789 220.271 89.3528 220.595C88.9309 220.919 88.6135 221.353 88.4004 221.899C88.1916 222.444 88.0872 223.049 88.0872 223.714C88.0872 224.396 88.1937 224.999 88.4068 225.523C88.6241 226.043 88.9437 226.452 89.3656 226.75C89.7917 227.044 90.3201 227.191 90.9508 227.191ZM104.195 224.686V218.882H105.704V228.7H104.195V227.038H104.093C103.863 227.537 103.505 227.961 103.019 228.31C102.533 228.655 101.92 228.828 101.178 228.828C100.564 228.828 100.019 228.694 99.5417 228.425C99.0645 228.152 98.6895 227.743 98.4167 227.198C98.144 226.648 98.0076 225.956 98.0076 225.12V218.882H99.5162V225.018C99.5162 225.734 99.7164 226.305 100.117 226.731C100.522 227.157 101.037 227.37 101.664 227.37C102.039 227.37 102.42 227.275 102.808 227.083C103.2 226.891 103.528 226.597 103.792 226.201C104.061 225.804 104.195 225.299 104.195 224.686ZM108.467 228.7V218.882H109.975V228.7H108.467ZM109.234 217.245C108.94 217.245 108.686 217.145 108.473 216.945C108.264 216.745 108.16 216.504 108.16 216.223C108.16 215.941 108.264 215.701 108.473 215.5C108.686 215.3 108.94 215.2 109.234 215.2C109.528 215.2 109.779 215.3 109.988 215.5C110.201 215.701 110.308 215.941 110.308 216.223C110.308 216.504 110.201 216.745 109.988 216.945C109.779 217.145 109.528 217.245 109.234 217.245ZM116.445 228.904C115.627 228.904 114.905 228.698 114.279 228.284C113.652 227.867 113.162 227.279 112.808 226.52C112.455 225.757 112.278 224.856 112.278 223.816C112.278 222.785 112.455 221.89 112.808 221.132C113.162 220.373 113.654 219.787 114.285 219.374C114.916 218.961 115.644 218.754 116.471 218.754C117.11 218.754 117.615 218.86 117.986 219.074C118.361 219.282 118.646 219.521 118.843 219.789C119.043 220.054 119.198 220.271 119.309 220.441H119.437V215.609H120.945V228.7H119.488V227.191H119.309C119.198 227.37 119.041 227.596 118.836 227.869C118.632 228.137 118.34 228.378 117.96 228.591C117.581 228.8 117.076 228.904 116.445 228.904ZM116.65 227.549C117.255 227.549 117.767 227.392 118.184 227.076C118.602 226.757 118.919 226.316 119.137 225.753C119.354 225.186 119.463 224.532 119.463 223.791C119.463 223.058 119.356 222.417 119.143 221.867C118.93 221.313 118.615 220.882 118.197 220.576C117.779 220.265 117.264 220.109 116.65 220.109C116.011 220.109 115.478 220.273 115.052 220.601C114.63 220.925 114.313 221.366 114.1 221.924C113.891 222.478 113.786 223.101 113.786 223.791C113.786 224.49 113.893 225.125 114.106 225.696C114.323 226.262 114.643 226.714 115.065 227.051C115.491 227.383 116.019 227.549 116.65 227.549ZM128.034 228.904C127.088 228.904 126.272 228.696 125.586 228.278C124.904 227.856 124.378 227.268 124.007 226.514C123.641 225.755 123.458 224.873 123.458 223.868C123.458 222.862 123.641 221.976 124.007 221.208C124.378 220.437 124.894 219.836 125.554 219.406C126.219 218.971 126.994 218.754 127.881 218.754C128.392 218.754 128.897 218.839 129.396 219.01C129.894 219.18 130.348 219.457 130.757 219.841C131.166 220.22 131.492 220.723 131.735 221.349C131.978 221.976 132.1 222.747 132.1 223.663V224.302H124.531V222.998H130.566C130.566 222.444 130.455 221.95 130.233 221.515C130.016 221.081 129.705 220.738 129.3 220.486C128.899 220.235 128.426 220.109 127.881 220.109C127.28 220.109 126.76 220.258 126.321 220.556C125.887 220.851 125.552 221.234 125.318 221.707C125.083 222.18 124.966 222.687 124.966 223.228V224.098C124.966 224.839 125.094 225.468 125.35 225.983C125.61 226.495 125.97 226.885 126.43 227.153C126.89 227.417 127.425 227.549 128.034 227.549C128.431 227.549 128.789 227.494 129.108 227.383C129.432 227.268 129.711 227.098 129.945 226.872C130.18 226.642 130.361 226.356 130.489 226.015L131.946 226.424C131.793 226.919 131.535 227.353 131.173 227.728C130.811 228.099 130.363 228.389 129.83 228.598C129.298 228.802 128.699 228.904 128.034 228.904ZM140.428 232.382C140.173 232.382 139.945 232.36 139.744 232.318C139.544 232.279 139.406 232.241 139.329 232.203L139.713 230.873C140.079 230.967 140.403 231.001 140.684 230.976C140.965 230.95 141.215 230.824 141.432 230.598C141.654 230.377 141.856 230.017 142.039 229.518L142.32 228.751L138.69 218.882H140.326L143.036 226.706H143.139L145.849 218.882H147.485L143.318 230.132C143.13 230.639 142.898 231.059 142.621 231.391C142.344 231.728 142.022 231.977 141.656 232.139C141.294 232.301 140.884 232.382 140.428 232.382ZM153.113 228.904C152.227 228.904 151.449 228.694 150.78 228.272C150.116 227.85 149.596 227.26 149.221 226.501C148.85 225.743 148.665 224.856 148.665 223.842C148.665 222.819 148.85 221.927 149.221 221.164C149.596 220.401 150.116 219.809 150.78 219.387C151.449 218.965 152.227 218.754 153.113 218.754C154 218.754 154.775 218.965 155.44 219.387C156.109 219.809 156.629 220.401 157 221.164C157.375 221.927 157.562 222.819 157.562 223.842C157.562 224.856 157.375 225.743 157 226.501C156.629 227.26 156.109 227.85 155.44 228.272C154.775 228.694 154 228.904 153.113 228.904ZM153.113 227.549C153.787 227.549 154.341 227.377 154.775 227.032C155.21 226.686 155.532 226.233 155.741 225.67C155.949 225.108 156.054 224.498 156.054 223.842C156.054 223.186 155.949 222.574 155.741 222.007C155.532 221.441 155.21 220.983 154.775 220.633C154.341 220.284 153.787 220.109 153.113 220.109C152.44 220.109 151.886 220.284 151.452 220.633C151.017 220.983 150.695 221.441 150.486 222.007C150.278 222.574 150.173 223.186 150.173 223.842C150.173 224.498 150.278 225.108 150.486 225.67C150.695 226.233 151.017 226.686 151.452 227.032C151.886 227.377 152.44 227.549 153.113 227.549ZM166.053 224.686V218.882H167.561V228.7H166.053V227.038H165.95C165.72 227.537 165.362 227.961 164.876 228.31C164.391 228.655 163.777 228.828 163.036 228.828C162.422 228.828 161.876 228.694 161.399 228.425C160.922 228.152 160.547 227.743 160.274 227.198C160.001 226.648 159.865 225.956 159.865 225.12V218.882H161.374V225.018C161.374 225.734 161.574 226.305 161.974 226.731C162.379 227.157 162.895 227.37 163.521 227.37C163.896 227.37 164.278 227.275 164.665 227.083C165.058 226.891 165.386 226.597 165.65 226.201C165.918 225.804 166.053 225.299 166.053 224.686ZM170.324 228.7V218.882H171.781V220.365H171.884C172.063 219.879 172.387 219.485 172.855 219.182C173.324 218.88 173.852 218.728 174.441 218.728C174.551 218.728 174.69 218.73 174.856 218.735C175.022 218.739 175.148 218.745 175.233 218.754V220.288C175.182 220.275 175.065 220.256 174.882 220.23C174.703 220.201 174.513 220.186 174.313 220.186C173.835 220.186 173.409 220.286 173.034 220.486C172.664 220.682 172.369 220.955 172.152 221.304C171.939 221.65 171.833 222.044 171.833 222.487V228.7H170.324ZM184.308 228.7L181.317 218.882H182.902L185.024 226.399H185.126L187.223 218.882H188.834L190.905 226.373H191.007L193.129 218.882H194.714L191.723 228.7H190.24L188.092 221.157H187.939L185.791 228.7H184.308ZM199.598 228.93C198.976 228.93 198.411 228.813 197.904 228.579C197.397 228.34 196.994 227.997 196.696 227.549C196.398 227.098 196.249 226.552 196.249 225.913C196.249 225.351 196.359 224.895 196.581 224.545C196.803 224.191 197.099 223.914 197.469 223.714C197.84 223.514 198.249 223.365 198.697 223.267C199.148 223.164 199.602 223.083 200.058 223.024C200.655 222.947 201.138 222.89 201.509 222.851C201.884 222.809 202.157 222.738 202.327 222.64C202.502 222.542 202.589 222.372 202.589 222.129V222.078C202.589 221.447 202.417 220.957 202.072 220.608C201.731 220.258 201.213 220.083 200.518 220.083C199.798 220.083 199.234 220.241 198.825 220.556C198.415 220.872 198.128 221.208 197.962 221.566L196.53 221.055C196.786 220.458 197.126 219.994 197.553 219.662C197.983 219.325 198.452 219.091 198.959 218.958C199.47 218.822 199.973 218.754 200.467 218.754C200.783 218.754 201.145 218.792 201.554 218.869C201.967 218.941 202.366 219.093 202.749 219.323C203.137 219.553 203.459 219.9 203.714 220.365C203.97 220.829 204.098 221.451 204.098 222.231V228.7H202.589V227.37H202.513C202.411 227.583 202.24 227.811 202.001 228.054C201.763 228.297 201.445 228.504 201.049 228.674C200.653 228.845 200.169 228.93 199.598 228.93ZM199.828 227.575C200.425 227.575 200.928 227.458 201.337 227.223C201.75 226.989 202.061 226.686 202.27 226.316C202.483 225.945 202.589 225.555 202.589 225.146V223.765C202.526 223.842 202.385 223.912 202.168 223.976C201.955 224.036 201.707 224.089 201.426 224.136C201.149 224.179 200.879 224.217 200.614 224.251C200.354 224.281 200.143 224.306 199.982 224.328C199.589 224.379 199.223 224.462 198.882 224.577C198.545 224.688 198.273 224.856 198.064 225.082C197.859 225.304 197.757 225.606 197.757 225.99C197.757 226.514 197.951 226.91 198.339 227.179C198.731 227.443 199.227 227.575 199.828 227.575ZM207.471 232.382C207.216 232.382 206.988 232.36 206.787 232.318C206.587 232.279 206.449 232.241 206.372 232.203L206.756 230.873C207.122 230.967 207.446 231.001 207.727 230.976C208.008 230.95 208.258 230.824 208.475 230.598C208.697 230.377 208.899 230.017 209.082 229.518L209.363 228.751L205.733 218.882H207.369L210.079 226.706H210.182L212.892 218.882H214.528L210.361 230.132C210.173 230.639 209.941 231.059 209.664 231.391C209.387 231.728 209.065 231.977 208.699 232.139C208.336 232.301 207.927 232.382 207.471 232.382ZM217.004 228.802C216.688 228.802 216.418 228.689 216.192 228.463C215.966 228.238 215.853 227.967 215.853 227.652C215.853 227.336 215.966 227.066 216.192 226.84C216.418 226.614 216.688 226.501 217.004 226.501C217.319 226.501 217.589 226.614 217.815 226.84C218.041 227.066 218.154 227.336 218.154 227.652C218.154 227.86 218.101 228.052 217.994 228.227C217.892 228.402 217.754 228.542 217.579 228.649C217.408 228.751 217.217 228.802 217.004 228.802Z" fill="#6D6C80"/>
<g filter="url(#filter0_d_8544_5)">
<rect y="272.09" width="202.22" height="49.91" rx="24.955" fill="#5751E1"/>
<path d="M35.1358 302.742C34.3571 302.742 33.6531 302.609 33.0238 302.342C32.4051 302.075 31.9145 301.691 31.5518 301.19C31.1891 300.689 31.0025 300.097 30.9918 299.414H33.3918C33.4238 299.873 33.5838 300.235 33.8718 300.502C34.1705 300.769 34.5758 300.902 35.0878 300.902C35.6105 300.902 36.0211 300.779 36.3198 300.534C36.6185 300.278 36.7678 299.947 36.7678 299.542C36.7678 299.211 36.6665 298.939 36.4638 298.726C36.2611 298.513 36.0051 298.347 35.6958 298.23C35.3971 298.102 34.9811 297.963 34.4478 297.814C33.7225 297.601 33.1305 297.393 32.6718 297.19C32.2238 296.977 31.8345 296.662 31.5038 296.246C31.1838 295.819 31.0238 295.254 31.0238 294.55C31.0238 293.889 31.1891 293.313 31.5198 292.822C31.8505 292.331 32.3145 291.958 32.9118 291.702C33.5091 291.435 34.1918 291.302 34.9598 291.302C36.1118 291.302 37.0451 291.585 37.7598 292.15C38.4851 292.705 38.8851 293.483 38.9598 294.486H36.4958C36.4745 294.102 36.3091 293.787 35.9998 293.542C35.7011 293.286 35.3011 293.158 34.7998 293.158C34.3625 293.158 34.0105 293.27 33.7438 293.494C33.4878 293.718 33.3598 294.043 33.3598 294.47C33.3598 294.769 33.4558 295.019 33.6478 295.222C33.8505 295.414 34.0958 295.574 34.3838 295.702C34.6825 295.819 35.0985 295.958 35.6318 296.118C36.3571 296.331 36.9491 296.545 37.4078 296.758C37.8665 296.971 38.2611 297.291 38.5918 297.718C38.9225 298.145 39.0878 298.705 39.0878 299.398C39.0878 299.995 38.9331 300.55 38.6238 301.062C38.3145 301.574 37.8611 301.985 37.2638 302.294C36.6665 302.593 35.9571 302.742 35.1358 302.742ZM43.6378 295.606V299.894C43.6378 300.193 43.7071 300.411 43.8458 300.55C43.9951 300.678 44.2405 300.742 44.5818 300.742H45.6218V302.63H44.2138C42.3258 302.63 41.3818 301.713 41.3818 299.878V295.606H40.3258V293.766H41.3818V291.574H43.6378V293.766H45.6218V295.606H43.6378ZM46.6569 298.166C46.6569 297.27 46.8329 296.475 47.1849 295.782C47.5476 295.089 48.0329 294.555 48.6409 294.182C49.2596 293.809 49.9476 293.622 50.7049 293.622C51.3663 293.622 51.9423 293.755 52.4329 294.022C52.9343 294.289 53.3343 294.625 53.6329 295.03V293.766H55.8889V302.63H53.6329V301.334C53.3449 301.75 52.9449 302.097 52.4329 302.374C51.9316 302.641 51.3503 302.774 50.6889 302.774C49.9423 302.774 49.2596 302.582 48.6409 302.198C48.0329 301.814 47.5476 301.275 47.1849 300.582C46.8329 299.878 46.6569 299.073 46.6569 298.166ZM53.6329 298.198C53.6329 297.654 53.5263 297.19 53.3129 296.806C53.0996 296.411 52.8116 296.113 52.4489 295.91C52.0863 295.697 51.6969 295.59 51.2809 295.59C50.8649 295.59 50.4809 295.691 50.1289 295.894C49.7769 296.097 49.4889 296.395 49.2649 296.79C49.0516 297.174 48.9449 297.633 48.9449 298.166C48.9449 298.699 49.0516 299.169 49.2649 299.574C49.4889 299.969 49.7769 300.273 50.1289 300.486C50.4916 300.699 50.8756 300.806 51.2809 300.806C51.6969 300.806 52.0863 300.705 52.4489 300.502C52.8116 300.289 53.0996 299.99 53.3129 299.606C53.5263 299.211 53.6329 298.742 53.6329 298.198ZM60.3167 295.142C60.6047 294.673 60.978 294.305 61.4367 294.038C61.906 293.771 62.4393 293.638 63.0367 293.638V295.99H62.4447C61.7407 295.99 61.2073 296.155 60.8447 296.486C60.4927 296.817 60.3167 297.393 60.3167 298.214V302.63H58.0767V293.766H60.3167V295.142ZM67.1534 295.606V299.894C67.1534 300.193 67.2228 300.411 67.3614 300.55C67.5108 300.678 67.7561 300.742 68.0974 300.742H69.1374V302.63H67.7294C65.8414 302.63 64.8974 301.713 64.8974 299.878V295.606H63.8414V293.766H64.8974V291.574H67.1534V293.766H69.1374V295.606H67.1534ZM81.457 291.462V293.27H76.801V296.134H80.369V297.91H76.801V302.63H74.561V291.462H81.457ZM85.2854 295.142C85.5734 294.673 85.9468 294.305 86.4054 294.038C86.8748 293.771 87.4081 293.638 88.0054 293.638V295.99H87.4134C86.7094 295.99 86.1761 296.155 85.8134 296.486C85.4614 296.817 85.2854 297.393 85.2854 298.214V302.63H83.0454V293.766H85.2854V295.142ZM97.7542 298.006C97.7542 298.326 97.7328 298.614 97.6902 298.87H91.2102C91.2635 299.51 91.4875 300.011 91.8822 300.374C92.2768 300.737 92.7622 300.918 93.3382 300.918C94.1702 300.918 94.7622 300.561 95.1142 299.846H97.5302C97.2742 300.699 96.7835 301.403 96.0582 301.958C95.3328 302.502 94.4422 302.774 93.3862 302.774C92.5328 302.774 91.7648 302.587 91.0822 302.214C90.4102 301.83 89.8822 301.291 89.4982 300.598C89.1248 299.905 88.9382 299.105 88.9382 298.198C88.9382 297.281 89.1248 296.475 89.4982 295.782C89.8715 295.089 90.3942 294.555 91.0662 294.182C91.7382 293.809 92.5115 293.622 93.3862 293.622C94.2288 293.622 94.9808 293.803 95.6422 294.166C96.3142 294.529 96.8315 295.046 97.1942 295.718C97.5675 296.379 97.7542 297.142 97.7542 298.006ZM95.4342 297.366C95.4235 296.79 95.2155 296.331 94.8102 295.99C94.4048 295.638 93.9088 295.462 93.3222 295.462C92.7675 295.462 92.2982 295.633 91.9142 295.974C91.5408 296.305 91.3115 296.769 91.2262 297.366H95.4342ZM107.629 298.006C107.629 298.326 107.608 298.614 107.565 298.87H101.085C101.139 299.51 101.363 300.011 101.757 300.374C102.152 300.737 102.637 300.918 103.213 300.918C104.045 300.918 104.637 300.561 104.989 299.846H107.405C107.149 300.699 106.659 301.403 105.933 301.958C105.208 302.502 104.317 302.774 103.261 302.774C102.408 302.774 101.64 302.587 100.957 302.214C100.285 301.83 99.7572 301.291 99.3732 300.598C98.9998 299.905 98.8132 299.105 98.8132 298.198C98.8132 297.281 98.9998 296.475 99.3732 295.782C99.7465 295.089 100.269 294.555 100.941 294.182C101.613 293.809 102.387 293.622 103.261 293.622C104.104 293.622 104.856 293.803 105.517 294.166C106.189 294.529 106.707 295.046 107.069 295.718C107.443 296.379 107.629 297.142 107.629 298.006ZM105.309 297.366C105.299 296.79 105.091 296.331 104.685 295.99C104.28 295.638 103.784 295.462 103.197 295.462C102.643 295.462 102.173 295.633 101.789 295.974C101.416 296.305 101.187 296.769 101.101 297.366H105.309ZM120.677 291.462V293.27H117.701V302.63H115.461V293.27H112.485V291.462H120.677ZM124.551 295.142C124.839 294.673 125.212 294.305 125.671 294.038C126.14 293.771 126.674 293.638 127.271 293.638V295.99H126.679C125.975 295.99 125.442 296.155 125.079 296.486C124.727 296.817 124.551 297.393 124.551 298.214V302.63H122.311V293.766H124.551V295.142ZM129.916 292.71C129.521 292.71 129.19 292.587 128.924 292.342C128.668 292.086 128.54 291.771 128.54 291.398C128.54 291.025 128.668 290.715 128.924 290.47C129.19 290.214 129.521 290.086 129.916 290.086C130.31 290.086 130.636 290.214 130.892 290.47C131.158 290.715 131.292 291.025 131.292 291.398C131.292 291.771 131.158 292.086 130.892 292.342C130.636 292.587 130.31 292.71 129.916 292.71ZM131.02 293.766V302.63H128.78V293.766H131.02ZM132.657 298.166C132.657 297.27 132.833 296.475 133.185 295.782C133.548 295.089 134.033 294.555 134.641 294.182C135.26 293.809 135.948 293.622 136.705 293.622C137.366 293.622 137.942 293.755 138.433 294.022C138.934 294.289 139.334 294.625 139.633 295.03V293.766H141.889V302.63H139.633V301.334C139.345 301.75 138.945 302.097 138.433 302.374C137.932 302.641 137.35 302.774 136.689 302.774C135.942 302.774 135.26 302.582 134.641 302.198C134.033 301.814 133.548 301.275 133.185 300.582C132.833 299.878 132.657 299.073 132.657 298.166ZM139.633 298.198C139.633 297.654 139.526 297.19 139.313 296.806C139.1 296.411 138.812 296.113 138.449 295.91C138.086 295.697 137.697 295.59 137.281 295.59C136.865 295.59 136.481 295.691 136.129 295.894C135.777 296.097 135.489 296.395 135.265 296.79C135.052 297.174 134.945 297.633 134.945 298.166C134.945 298.699 135.052 299.169 135.265 299.574C135.489 299.969 135.777 300.273 136.129 300.486C136.492 300.699 136.876 300.806 137.281 300.806C137.697 300.806 138.086 300.705 138.449 300.502C138.812 300.289 139.1 299.99 139.313 299.606C139.526 299.211 139.633 298.742 139.633 298.198ZM146.317 290.79V302.63H144.077V290.79H146.317Z" fill="white"/>
<g clip-path="url(#clip1_8544_5)">
<path d="M158.158 296.05H171.283M171.283 296.05L165.658 290.425M171.283 296.05L165.658 301.675" stroke="white" stroke-width="1.875" stroke-linecap="round" stroke-linejoin="round"/>
</g>
</g>
<defs>
<filter id="filter0_d_8544_5" x="0" y="272.09" width="206.221" height="55.91" filterUnits="userSpaceOnUse" color-interpolation-filters="sRGB">
<feFlood flood-opacity="0" result="BackgroundImageFix"/>
<feColorMatrix in="SourceAlpha" type="matrix" values="0 0 0 0 0 0 0 0 0 0 0 0 0 0 0 0 0 0 127 0" result="hardAlpha"/>
<feOffset dx="4" dy="6"/>
<feComposite in2="hardAlpha" operator="out"/>
<feColorMatrix type="matrix" values="0 0 0 0 0.0196078 0 0 0 0 0 0 0 0 0 0.443137 0 0 0 1 0"/>
<feBlend mode="normal" in2="BackgroundImageFix" result="effect1_dropShadow_8544_5"/>
<feBlend mode="normal" in="SourceGraphic" in2="effect1_dropShadow_8544_5" result="shape"/>
</filter>
<clipPath id="clip0_8544_5">
<rect width="213.89" height="56" fill="white" transform="translate(229.09 53.5)"/>
</clipPath>
<clipPath id="clip1_8544_5">
<rect width="15" height="14" fill="white" transform="translate(157.221 289.05)"/>
</clipPath>
</defs>
</svg>
